<?xml version="1.0" standalone="no"?> <!DOCTYPE svg PUBLIC "-//W3C//DTD SVG 1.0//EN" "http://www.w3.org/TR/2001/REC-SVG-20010904/DTD/svg10.dtd" > <svg xmlns="http://www.w3.org/2000/svg" width="100%" height="100%">
<defs >
<font horiz-adv-x="437" ><font-face
    font-family="CNN"
    units-per-em="1000"
    panose-1="0 0 4 0 0 0 0 0 0 0"
    ascent="817"
    descent="-216"
    alphabetic="0" />
<missing-glyph horiz-adv-x="500" d="M63 0V800H438V0H63ZM125 63H375V738H125V63Z" />
<glyph unicode=" " glyph-name="space" horiz-adv-x="200" />
<glyph unicode="!" glyph-name="exclam" horiz-adv-x="186" d="M104 251V718H175V251H104ZM9 251V718H79V251H9ZM93 -3Q54 -3 32 25T9 94Q9 134 31 162T93 190Q132 190 154 162T177 94Q177 53 155 25T93 -3ZM93 109Q79 109 79 94Q79 78 93 78Q107 78 107 94Q107
109 93 109Z" />
<glyph unicode="&quot;" glyph-name="quotedbl" horiz-adv-x="396" d="M114 460V743H192V460H114ZM9 460V743H86V460H9ZM114 460V743H192V460H114ZM9 460V743H86V460H9ZM309 459V742H387V459H309ZM204 459V742H281V459H204ZM309 459V742H387V459H309ZM204 459V742H281V459H204Z"
/>
<glyph unicode="#" glyph-name="numbersign" horiz-adv-x="592" d="M414 518V703H487V599H593V518H414ZM205 518V703H278V599H314V703H387V518H205ZM414 268V488H593V407H487V349H593V268H414ZM-2 518V599H105V703H178V518H-2ZM205 268V488H387V268H205ZM487 158V22H414V239H593V158H487ZM-2
268V349H105V407H-2V488H178V268H-2ZM314 22V158H278V22H205V239H387V22H314ZM105 22V158H-2V239H178V22H105ZM314 407H278V349H314V407Z" />
<glyph unicode="$" glyph-name="dollar" horiz-adv-x="466" d="M281 2L285 7V-1H141V80H213V110H141V191H213V285Q116 286 55 345T-6 502Q-6 597 54 657T208 718H342V637H285V608H342V527H285V474Q371 459 421 393T471 237Q471 147 420 82T281 2ZM213 527H208Q177
527 177 501Q177 477 208 477H213V527ZM213 397Q164 398 134 424T104 501Q104 551 134 578T213 607V637H208Q147 637 107 600T67 502Q67 438 108 403T213 366V397ZM285 390V361Q328 350 354 317T381 240Q381 195 355 162T285 116V85Q338 98 368 139T399 237Q399
292 369 334T285 390ZM285 275V202Q309 216 309 240Q309 262 285 275Z" />
<glyph unicode="%" glyph-name="percent" horiz-adv-x="674" d="M634 129Q634 64 576 28Q530 -1 473 -1Q417 -1 371 28Q313 64 313 129L239 0H160L566 717H637L371 236Q413 263 473 263Q531 263 576 233Q634 196 634 129ZM515 717L113 0H37L305 483Q260 454 197
454Q141 454 97 483Q42 519 42 585Q42 652 97 688Q140 717 197 717Q254 717 302 689Q363 652 363 588L435 717H515ZM592 129Q592 173 549 198Q515 218 473 218Q433 218 398 198Q355 172 355 129Q355 86 398 62Q433 42 473 42Q514 42 549 62Q592 86 592 129ZM321
585Q321 628 275 654Q238 675 197 675Q157 675 124 654Q84 629 84 585Q84 542 124 517Q157 497 197 497Q240 497 276 516Q321 541 321 585ZM566 129Q566 103 539 85T473 66Q437 66 413 84T388 129Q388 156 412 174T473 193Q511 193 538 174T566 129ZM288 585Q288
559 261 540T197 521Q160 521 135 540T110 585Q110 611 135 629T197 648Q234 648 261 630T288 585ZM499 129Q499 147 473 147Q451 147 451 129Q451 114 473 114Q499 114 499 129ZM221 585Q221 602 197 602Q173 602 173 585Q173 570 196 570Q221 570 221 585Z" />
<glyph unicode="&amp;" glyph-name="ampersand" horiz-adv-x="540" d="M253 370Q193 370 150 398Q100 431 100 489Q100 547 150 580Q193 609 253 609H316V528H253Q173 529 173 489Q173 451 253 451H539V370H253ZM384 111V340H539V259H457V192H539V111H384ZM253
0Q149 0 78 57Q1 119 1 223Q1 297 47 356Q1 416 1 489Q1 596 76 660Q147 719 253 719H316V638H253Q184 638 128 600Q67 556 67 489Q67 451 95 416Q108 400 159 355Q110 313 95 295Q67 260 67 223Q67 158 129 117Q185 81 253 81H539V0H253ZM253 111Q194 111 152
136Q100 167 100 223Q100 280 151 312Q195 340 253 340H364V111H253ZM290 259H253Q230 259 205 251Q173 241 173 223Q173 192 253 192H290V259Z" />
<glyph unicode="&apos;" glyph-name="quotesingle" horiz-adv-x="207" d="M117 460V743H195V460H117ZM12 460V743H89V460H12Z" />
<glyph unicode="(" glyph-name="parenleft" horiz-adv-x="367" d="M324 109Q218 109 171 130Q96 164 96 258V455Q96 546 158 582Q205 609 300 609Q310 609 333 608Q355 608 369 608V527H283Q227 527 204 517Q169 502 169 455V258Q169 216 206 201Q230 191 283
191H369V111Q319 109 324 109ZM283 -1Q154 -1 79 62Q-2 129 -2 258V455Q-2 626 108 681Q180 718 369 718V637L284 638Q177 638 128 601Q71 558 71 455V258Q71 167 125 125Q170 90 260 83Q293 80 369 80V-1H283Z" />
<glyph unicode=")" glyph-name="parenright" horiz-adv-x="373" d="M87 -1H1V80Q152 80 205 101Q299 138 299 258V455Q299 552 250 595Q208 632 115 637Q85 639 1 637V718H37Q205 718 277 674Q372 615 372 455V258Q372 129 291 62Q216 -1 87 -1ZM46 109Q49 109
1 111V191H87Q140 191 164 201Q201 216 201 258V455Q201 502 166 517Q143 527 87 527H1V608Q15 608 37 608Q60 609 70 609Q165 609 212 582Q274 546 274 455V258Q274 164 199 130Q151 109 46 109Z" />
<glyph unicode="*" glyph-name="asterisk" horiz-adv-x="495" d="M177 571L244 753L318 574L494 559L363 427L405 236L251 333L100 230L136 422L1 549L177 571ZM217 453L206 398L249 427L294 399L281 454L320 493L269 497L248 548L229 496L177 490L217 453Z" />
<glyph unicode="+" glyph-name="plus" horiz-adv-x="372" d="M201 377V565H274V457H369V377H201ZM3 377V457H102V565H175V377H3ZM274 267V152H201V347H369V267H274ZM102 152V267H3V347H175V152H102Z" />
<glyph unicode="," glyph-name="comma" horiz-adv-x="277" d="M36 -126L221 93L164 148L-21 -71L36 -126ZM115 -200L300 20L242 73L58 -146L115 -200Z" />
<glyph unicode="-" glyph-name="hyphen" horiz-adv-x="205" d="M4 376V454H200V376H4ZM4 270V348H200V270H4Z" />
<glyph unicode="." glyph-name="period" horiz-adv-x="183" d="M92 -3Q53 -3 30 24T7 90Q7 129 30 156T92 183Q131 183 153 156T176 90Q176 51 154 24T92 -3ZM92 105Q78 105 78 90Q78 75 92 75Q106 75 106 90Q106 105 92 105Z" />
<glyph unicode="/" glyph-name="slash" horiz-adv-x="649" d="M198 0H100L609 719H703L198 0ZM40 0H-54L444 719H542L40 0Z" />
<glyph unicode="0" glyph-name="zero" horiz-adv-x="676" d="M346 -1H329Q180 -1 88 110Q3 214 3 366Q3 517 89 615Q179 718 329 718H346Q496 718 586 615Q672 517 672 366Q672 215 587 111Q495 -1 346 -1ZM346 637H329Q213 637 145 560T76 366Q76 247 143 166Q214
80 329 80H346Q461 80 533 167Q600 248 600 366Q600 484 532 560T346 637ZM346 110H329Q225 110 162 183Q103 252 103 357Q103 461 162 532Q226 608 329 608H346Q450 608 513 532Q572 462 572 357Q572 252 513 183Q450 110 346 110ZM346 527H329Q259 527 218 478T176
357Q176 277 221 234T346 191Q416 191 459 240Q500 286 500 357Q500 428 458 477T346 527Z" />
<glyph unicode="1" glyph-name="one" horiz-adv-x="301" d="M224 -1V453Q224 536 188 584Q149 637 70 637H5V718H70Q182 718 242 640Q295 569 295 453V-1H224ZM126 -1V453Q126 495 111 511T58 527Q65 527 5 527V608H70Q135 608 169 561Q199 520 199 453V-1H126Z" />
<glyph unicode="2" glyph-name="two" horiz-adv-x="503" d="M284 285H251Q190 286 177 266Q168 253 168 191H487V110H95V243Q95 300 139 334Q179 366 237 366H284Q346 366 385 403T425 502Q425 564 386 600T284 637H14V718H284Q377 718 437 657T498 502Q498 407
438 346T284 285ZM4 -1V243Q4 343 70 410T237 477Q242 477 252 477Q262 476 267 476Q316 476 316 501Q316 527 284 527H14V608H284Q330 608 359 578T389 501Q389 397 260 397Q172 397 125 355T78 243V80H487V-1H4Z" />
<glyph unicode="3" glyph-name="three" horiz-adv-x="451" d="M192 370H126V451L172 450Q270 449 270 489Q270 528 192 528H9V609H192Q251 609 294 580Q344 547 344 489Q344 431 294 398Q251 370 192 370ZM176 0H9V81Q28 81 63 80T114 79Q364 79 364 210Q364 287
284 355Q364 425 364 505Q364 640 115 640Q98 640 64 639Q26 638 9 638V719H176Q283 719 359 658Q441 593 441 486Q441 415 396 356Q442 299 442 228Q442 124 358 59Q281 0 176 0ZM192 111H9V192H192Q270 192 270 225Q270 262 126 259V340H192Q250 340 293 313Q344
281 344 225Q344 168 293 137Q250 111 192 111Z" />
<glyph unicode="4" glyph-name="four" horiz-adv-x="612" d="M447 316V718H520V396H605V316H447ZM409 316Q271 316 207 344Q107 389 107 512V718H181V512Q181 396 347 396V718H420V316H409ZM520 205V-1H447V286H605V205H520ZM347 -1V205Q194 206 105 280Q7 360
7 512V718H81V512Q81 286 352 286H420V-1H347Z" />
<glyph unicode="5" glyph-name="five" horiz-adv-x="482" d="M82 637V366H241Q300 366 341 332T383 240Q383 180 342 145T241 110H8V191H241Q310 191 310 240Q310 285 241 285H8V718H439V637H82ZM241 -1H8V80H241Q312 80 356 123T401 237Q401 306 356 351T241
396H105V608H439V527H179V477H241Q344 477 408 409T473 237Q473 134 409 67T241 -1Z" />
<glyph unicode="6" glyph-name="six" horiz-adv-x="485" d="M230 2Q123 2 61 85Q7 159 7 269V721H80V269Q80 192 116 141Q157 83 230 83Q312 83 359 134T406 269Q406 354 353 407T214 461H106V721H179V541H214Q332 541 405 465T478 269Q478 151 414 78Q346 2 230
2ZM230 112Q173 112 137 165Q106 211 106 269V431H230Q299 431 341 385T383 269Q383 201 340 157T230 112ZM230 350H179V269Q179 242 192 219Q207 193 230 193Q264 193 287 214T310 269Q310 305 288 327T230 350Z" />
<glyph unicode="7" glyph-name="seven" horiz-adv-x="616" d="M571 503L231 1H137L512 571Q528 595 528 610Q528 637 483 637H30V718H483Q613 718 613 619Q613 565 571 503ZM93 1H-1L352 527H30V608H498L93 1Z" />
<glyph unicode="8" glyph-name="eight" horiz-adv-x="581" d="M517 356Q570 300 570 229Q570 171 536 119Q461 0 280 0Q174 0 96 59Q9 124 9 228Q9 301 62 356Q10 414 10 488Q10 549 44 602Q116 719 298 719Q405 719 484 658Q571 592 571 487Q571 414 517 356ZM280
638Q198 638 147 605Q87 566 87 490Q87 426 140 382Q165 361 180 360V350Q163 349 139 329Q88 289 88 224Q88 81 298 81Q379 81 430 112Q491 150 491 224Q491 289 439 329Q414 349 364 352Q428 368 462 408Q493 444 493 491Q493 638 280 638ZM314 370H264Q204 370
162 398Q112 431 112 489Q112 548 162 581Q204 609 264 609H314Q374 609 417 580Q467 547 467 488Q467 431 416 398Q372 370 314 370ZM314 111H264Q206 111 163 137Q111 168 111 225Q111 281 162 313Q206 340 264 340H314Q372 340 415 314Q467 282 467 226Q467
169 416 137Q373 111 314 111ZM299 528Q185 528 185 489Q185 451 264 451H314Q341 451 363 458Q394 468 394 489Q394 528 299 528ZM314 259H264Q185 259 185 225Q185 192 264 192H314Q394 192 394 225Q394 243 361 253Q338 259 314 259Z" />
<glyph unicode="9" glyph-name="nine" horiz-adv-x="485" d="M255 290Q187 290 145 336T103 452Q103 520 145 564T255 609Q313 609 348 557Q380 511 380 452V290H255ZM405 1V452Q405 530 369 581Q328 639 255 639Q173 639 126 588T79 452Q79 367 132 314T271 260H380V1H306V180H271Q153
180 80 256T7 452Q7 569 73 644T255 720Q362 720 423 637Q478 562 478 452V1H405ZM306 452Q306 479 292 503T255 528Q221 528 199 507T176 452Q176 416 198 394T255 371H306V452Z" />
<glyph unicode=":" glyph-name="colon" horiz-adv-x="173" d="M86 286Q48 286 25 314T2 382Q2 422 25 450T86 478Q125 478 149 449Q170 422 170 382Q170 342 149 315Q125 286 86 286ZM86 -3Q48 -3 25 25T2 93Q2 133 25 161T86 189Q125 189 149 160Q170 133 170
93Q170 53 149 26Q125 -3 86 -3ZM86 398Q72 398 72 382Q72 366 86 366Q101 366 101 382Q101 398 86 398ZM86 109Q72 109 72 93Q72 77 86 77Q101 77 101 93Q101 109 86 109Z" />
<glyph unicode=";" glyph-name="semicolon" horiz-adv-x="282" d="M141 286Q102 286 80 314T57 382Q57 422 79 450T141 478Q180 478 202 450T225 382Q225 342 203 314T141 286ZM141 397Q127 397 127 382Q127 366 141 366Q155 366 155 382Q155 397 141 397ZM36
-126L221 93L164 148L-21 -71L36 -126ZM115 -200L300 20L242 73L58 -146L115 -200Z" />
<glyph unicode="&lt;" glyph-name="less" horiz-adv-x="657" d="M140 404L652 597V512L366 404L652 294V211L140 404ZM70 313Q4 337 4 404Q4 470 70 494L652 713V628L94 418Q78 412 78 404Q78 396 94 390L652 178V94L70 313Z" />
<glyph unicode="=" glyph-name="equal" horiz-adv-x="414" d="M4 543V623H410V543H4ZM4 432V512H410V432H4ZM4 199V279H410V199H4ZM4 89V169H410V89H4Z" />
<glyph unicode="&gt;" glyph-name="greater" horiz-adv-x="652" d="M584 313L2 93V176L560 390Q576 396 576 404Q576 412 560 418L2 628V713L584 494Q649 470 649 404Q649 337 584 313ZM2 211V294L288 404L2 514V597L515 404L2 211Z" />
<glyph unicode="?" glyph-name="question" horiz-adv-x="466" d="M221 276H179V221H105V357H221Q289 357 336 393Q388 432 388 497Q388 562 337 601Q289 637 222 637H22V718H222Q323 718 390 660Q461 598 461 497Q461 397 389 335Q321 276 221 276ZM237 388H93Q79
388 79 373V221H6V373Q6 410 31 439T93 468H237Q293 468 293 497Q293 527 237 527H22V608H237Q290 608 326 580Q367 549 367 497Q367 445 326 415Q289 388 237 388ZM92 -3Q52 -3 28 25T4 94Q4 134 28 162T92 190Q132 190 155 162T179 94Q179 53 156 25T92 -3ZM92
109Q77 109 77 94Q77 78 92 78Q106 78 106 94Q106 109 92 109Z" />
<glyph unicode="@" glyph-name="at" horiz-adv-x="207" />
<glyph unicode="A" glyph-name="A" horiz-adv-x="535" d="M102 299V392Q102 478 138 537Q182 609 265 609Q433 609 433 392V299H102ZM459 1V392Q459 509 421 568Q374 639 265 639Q156 639 112 567Q76 509 76 392V1H2V392Q2 546 54 624Q118 720 265 720Q416 720
480 627Q532 550 532 392V1H459ZM360 1V187H175V1H102V268H433V1H360ZM360 392Q360 528 265 528Q219 528 195 482Q175 444 175 392V380H360V392Z" />
<glyph unicode="B" glyph-name="B" horiz-adv-x="486" d="M213 0H6V719H213Q320 719 397 658Q479 592 479 486Q479 415 434 356Q479 299 479 229Q479 124 396 59Q319 0 213 0ZM213 638H79V81H213Q292 81 342 113Q402 150 402 223Q402 268 377 303Q349 342 298
354Q403 390 403 490Q403 564 344 604Q292 638 213 638ZM229 370H105V609H229Q288 609 331 580Q383 547 383 489Q383 431 332 398Q289 370 229 370ZM229 111H105V340H229Q287 340 331 314Q383 282 383 225Q383 169 330 137Q287 111 229 111ZM229 528H179V451H229Q308
451 308 489Q308 528 229 528ZM229 259H179V192H229Q308 192 308 225Q308 243 276 253Q252 259 229 259Z" />
<glyph unicode="C" glyph-name="C" horiz-adv-x="448" d="M325 110Q223 110 160 183Q101 252 101 357Q101 462 160 532Q223 608 325 608H445V527H325Q256 527 215 478T174 357Q174 285 215 238T325 191H445V110H325ZM325 -1Q178 -1 87 111Q2 215 2 366Q2 517 88
615Q177 718 325 718H445V637H325Q210 637 143 561T75 366Q75 247 141 166Q211 80 325 80H445V-1H325Z" />
<glyph unicode="D" glyph-name="D" horiz-adv-x="527" d="M202 -1H1V718H202Q351 718 440 615Q525 517 525 366Q525 215 441 111Q350 -1 202 -1ZM202 637H75V80H202Q316 80 387 166Q453 247 453 366Q453 484 385 560T202 637ZM202 110H101V608H202Q305 608 367
532Q426 462 426 357Q426 252 367 183Q305 110 202 110ZM202 527H174V191H202Q271 191 314 239Q354 285 354 357Q354 428 313 477T202 527Z" />
<glyph unicode="E" glyph-name="E" horiz-adv-x="334" d="M175 527V460H303V379H102V608H329V527H175ZM4 -1V718H329V637H77V80H329V-1H4ZM102 110V348H303V267H175V191H329V110H102Z" />
<glyph unicode="F" glyph-name="F" horiz-adv-x="301" d="M102 366V453Q102 520 132 561Q166 607 232 607H295V526Q288 526 274 526Q263 527 257 527Q206 527 191 512T175 447H295V366H102ZM232 637Q77 637 77 453V-1H5V453Q5 568 60 639Q121 718 232 718H295V637H232ZM175
255V-1H102V336H295V255H175Z" />
<glyph unicode="G" glyph-name="G" horiz-adv-x="494" d="M329 527Q260 527 218 478T176 357Q176 289 214 242T317 192V267H256V348H390V110H329Q225 110 163 183Q103 252 103 357Q103 462 163 533Q225 608 329 608H489V527H329ZM329 -1Q180 -1 89 110Q4 214 4
366Q4 517 90 615Q180 718 329 718H489V637H329Q213 637 145 561T77 366Q77 247 143 166Q214 80 329 80H416V369H256V450H489V-1H329Z" />
<glyph unicode="H" glyph-name="H" horiz-adv-x="511" d="M429 -1V718H502V-1H429ZM108 376V718H181V457H330V718H403V376H108ZM330 -1V264H181V-1H108V345H403V-1H330ZM8 -1V718H82V-1H8Z" />
<glyph unicode="I" glyph-name="I" horiz-adv-x="174" d="M100 -1V718H170V-1H100ZM4 -1V718H75V-1H4Z" />
<glyph unicode="J" glyph-name="J" horiz-adv-x="406" d="M76 110H5V191Q20 191 47 190T87 189Q164 189 196 219T229 326V718H302V326Q302 110 76 110ZM76 -1H5V80H76Q327 80 327 326V718H400V326Q400 176 312 88T76 -1Z" />
<glyph unicode="K" glyph-name="K" horiz-adv-x="680" d="M595 -3L298 329L589 718H692L397 328L694 -3H595ZM104 134V718H178V363L447 718H548L104 134ZM447 -3L279 185L168 44Q132 -1 82 -1Q43 -1 22 29Q4 55 4 95V718H78V95Q78 79 85 79Q98 79 115 101L273
303L549 -3H447Z" />
<glyph unicode="L" glyph-name="L" horiz-adv-x="402" d="M329 110Q102 110 102 326V718H175V326Q175 252 205 222T309 190Q324 190 351 191Q386 191 398 191V110H329ZM329 -1Q180 -1 92 87T3 326V718H77V326Q77 80 329 80H398V-1H329Z" />
<glyph unicode="M" glyph-name="M" horiz-adv-x="899" d="M722 1V392Q722 528 627 528Q581 528 556 482Q537 444 537 392V1H462V392Q462 427 477 477Q515 609 627 609Q797 609 797 392V1H722ZM822 1V392Q822 510 784 568Q738 639 627 639Q548 639 509 604T451
476Q434 567 387 605Q345 639 267 639Q158 639 113 567Q77 509 77 392V1H2V392Q2 546 55 624Q118 720 267 720Q386 720 450 665Q513 720 627 720Q779 720 843 627Q896 550 896 392V1H822ZM362 1V392Q362 528 267 528Q221 528 196 482Q177 444 177 392V1H102V392Q102
478 139 537Q183 609 267 609Q340 609 374 578Q403 551 423 478Q437 425 437 392V1H362Z" />
<glyph unicode="N" glyph-name="N" horiz-adv-x="564" d="M482 -10Q432 -10 395 43L179 354V-1H105V584Q221 417 454 91Q468 72 475 72Q480 72 483 96Q484 109 484 131V718H558V95Q558 55 542 26Q521 -10 482 -10ZM116 618Q101 638 87 638Q80 638 80 622V-1H6V622Q6
662 25 689Q46 720 86 720Q137 720 169 673L385 363V718H458V133L116 618Z" />
<glyph unicode="O" glyph-name="O" horiz-adv-x="666" d="M342 -1H325Q176 -1 85 111Q-1 215 -1 366Q-1 526 90 622T342 718Q491 718 581 616Q667 518 667 367Q667 215 582 111Q491 -1 342 -1ZM325 637Q209 637 141 561T72 366Q72 247 139 166Q210 80 325 80H342Q457
80 528 167Q594 248 594 366Q594 493 523 565T325 637ZM325 110Q221 110 158 182Q99 251 99 356Q99 461 158 532Q222 608 325 608H342Q445 608 508 532Q567 462 567 357Q567 243 503 177T325 110ZM325 527Q255 527 213 478T171 356Q171 277 216 234T342 191Q412
191 454 240Q495 286 495 357Q495 437 450 482T325 527Z" />
<glyph unicode="P" glyph-name="P" horiz-adv-x="475" d="M225 289H101V608H225Q293 608 335 563T377 449Q377 380 335 335T225 289ZM209 179H174V-1H101V259H209Q292 259 346 312T401 449Q401 533 347 585T210 637H74V-1H2V718H210Q327 718 400 642T473 448Q473
329 400 254T209 179ZM225 527H174V370H225Q260 370 282 392T305 449Q305 483 283 505T225 527Z" />
<glyph unicode="Q" glyph-name="Q" horiz-adv-x="705" d="M612 -1L493 131Q590 241 590 366Q590 486 523 561Q453 637 335 637H316Q201 637 135 560T68 365Q68 243 136 164Q207 80 326 80Q395 80 465 113L567 -1H462L447 18Q392 -1 321 -1Q173 -1 81 110Q-6 215
-6 365Q-6 515 83 615Q176 718 325 718Q482 718 574 619Q663 523 663 365Q663 234 594 134L717 -1H612ZM474 150L353 287H455L471 270Q492 312 492 357Q492 434 445 480T321 527Q251 527 209 477T167 356Q167 295 199 251Q232 204 289 193L203 287H308L450 130Q391
110 321 110Q217 110 154 183Q94 251 94 356Q94 469 159 538T337 608Q437 608 503 529Q567 455 567 354Q567 251 474 150Z" />
<glyph unicode="R" glyph-name="R" horiz-adv-x="551" d="M463 -1L236 253Q333 280 376 319Q429 366 429 452Q429 544 364 593Q306 637 210 637H75V-1H1V718H210Q335 718 417 647Q505 572 505 449Q505 376 470 314T372 217L569 -1H463ZM316 -1Q264 56 174 158V-1H101V608H226Q299
608 348 567Q399 523 399 450Q399 403 374 362T306 303Q294 298 224 289Q191 285 191 269Q191 254 213 229L418 -1H316ZM226 527H174V354Q186 363 215 369Q237 372 259 376Q327 390 327 450Q327 487 295 508Q267 527 226 527Z" />
<glyph unicode="S" glyph-name="S" horiz-adv-x="468" d="M210 637Q148 637 108 601T68 502Q68 441 108 404T210 366H241Q299 366 339 333Q383 298 383 240Q383 181 342 146T241 110H8V191H241Q268 191 288 203T309 240Q309 271 272 281Q255 285 210 285Q115 285
56 346T-4 502Q-4 598 55 658T210 718H439V637H210ZM241 -1H8V80H241Q311 80 355 123T400 237Q400 307 356 351T241 396H210Q164 396 135 425T105 501Q105 547 134 577T210 608H439V527H210Q177 527 177 501Q177 477 221 477Q225 477 231 477T241 477Q343 477 407
409T472 237Q472 133 408 66T241 -1Z" />
<glyph unicode="T" glyph-name="T" horiz-adv-x="470" d="M4 637V718H466V637H4ZM321 527V-1H249V608H466V527H321ZM149 -1V527H4V608H222V-1H149Z" />
<glyph unicode="U" glyph-name="U" horiz-adv-x="541" d="M273 110Q105 110 105 326V718H178V326Q178 191 273 191Q318 191 343 237Q363 275 363 326V718H436V326Q436 240 399 181Q355 110 273 110ZM273 -1Q121 -1 57 91Q5 168 5 326V718H79V326Q79 209 117 151Q164
80 273 80Q380 80 426 152Q462 210 462 326V718H536V326Q536 174 483 95Q419 -1 273 -1Z" />
<glyph unicode="V" glyph-name="V" horiz-adv-x="542" d="M272 149L97 720H174L271 403L369 720H445L272 149ZM353 73Q331 0 271 0Q211 0 189 73L-7 720H71L259 98Q264 81 271 81Q278 81 283 98L473 720H549L353 73Z" />
<glyph unicode="W" glyph-name="W" horiz-adv-x="897" d="M626 110Q514 110 475 244Q461 292 461 327V719H536V327Q536 275 555 237Q580 191 626 191Q721 191 721 327V719H796V327Q796 110 626 110ZM626 0Q512 0 449 55Q385 0 266 0Q117 0 54 95Q1 173 1 327V719H76V327Q76
210 112 153Q157 81 266 81Q344 81 386 115Q433 153 450 244Q469 151 508 116T626 81Q737 81 783 151Q821 208 821 327V719H895V327Q895 169 843 92Q779 0 626 0ZM422 241Q402 169 372 142Q338 110 266 110Q182 110 138 182Q101 241 101 327V719H176V327Q176 275
195 237Q220 191 266 191Q361 191 361 327V719H436V327Q436 294 422 241Z" />
<glyph unicode="X" glyph-name="X" horiz-adv-x="526" d="M262 384L102 720H181L263 556L344 720H427L262 384ZM360 354L529 0H447L277 354L454 720H537L360 354ZM80 0H-6L166 354L-11 720H72L248 354L80 0ZM338 0L263 154L188 0H106L262 326L420 0H338Z" />
<glyph unicode="Y" glyph-name="Y" horiz-adv-x="527" d="M264 384L102 720H186L264 557L341 720H426L264 384ZM189 -1H107L455 720H538L189 -1ZM80 -1H-4L166 354L-11 720H71L250 354L80 -1Z" />
<glyph unicode="Z" glyph-name="Z" horiz-adv-x="459" d="M443 556Q440 548 368 419L242 191H458V110H109Q171 221 294 438Q323 487 377 587Q386 605 386 613Q386 637 350 637H10V718H350Q464 718 464 629Q464 601 443 556ZM110 -1Q-6 -1 -6 88Q-6 123 17 166Q36
202 225 527H10V608H357L83 127Q76 114 76 105Q76 80 110 80H458V-1H110Z" />
<glyph unicode="[" glyph-name="bracketleft" horiz-adv-x="377" d="M199 104Q138 104 118 133Q101 156 101 219L102 455Q102 534 111 559Q130 608 199 608H374V527H199Q173 527 173 493V214Q173 191 200 189Q233 186 285 187Q373 189 374 189V104H199ZM199 -1Q101
-1 62 22Q11 52 5 137Q3 160 3 248V534Q3 655 43 689Q78 718 199 718H374V637Q290 638 229 638Q132 638 106 616Q76 590 76 455V209Q76 147 90 118Q110 75 166 75Q171 75 183 76Q194 76 199 76H374V-1H199Z" />
<glyph unicode="\" glyph-name="backslash" horiz-adv-x="664" d="M617 0L114 719H212L710 0H617ZM459 0L-47 719H47L557 0H459Z" />
<glyph unicode="]" glyph-name="bracketright" horiz-adv-x="381" d="M180 -1H5V80Q88 79 150 79Q247 79 273 101Q303 127 303 262V508Q303 570 289 599Q269 642 213 642Q208 642 196 641Q185 641 180 641H5V718H180Q278 718 317 695Q368 665 374 580Q376 557
376 469V183Q376 62 336 28Q301 -1 180 -1ZM5 109V190H180Q206 190 206 224V503Q206 526 179 528Q146 531 94 530Q6 528 5 528V613H180Q241 613 261 584Q278 561 278 498L277 262Q277 183 268 158Q249 109 180 109H5Z" />
<glyph unicode="^" glyph-name="asciicircum" horiz-adv-x="626" d="M313 659L508 346H422L313 513L203 346H119L313 659ZM223 734Q259 798 313 798Q367 798 403 734L624 346H538Q466 468 325 715Q319 725 313 725Q308 725 299 708L87 346H2L223 734Z" />
<glyph unicode="_" glyph-name="underscore" horiz-adv-x="706" d="M3 -202V-18H703V-202H3ZM630 -96H77V-124H630V-96Z" />
<glyph unicode="`" glyph-name="grave" horiz-adv-x="288" d="M243 523L58 742L116 797L301 577L243 523ZM164 449L-21 668L37 722L221 503L164 449Z" />
<glyph unicode="a" glyph-name="a" horiz-adv-x="535" d="M102 299V392Q102 478 138 537Q182 609 265 609Q433 609 433 392V299H102ZM459 1V392Q459 509 421 568Q374 639 265 639Q156 639 112 567Q76 509 76 392V1H2V392Q2 546 54 624Q118 720 265 720Q416 720
480 627Q532 550 532 392V1H459ZM360 1V187H175V1H102V268H433V1H360ZM360 392Q360 528 265 528Q219 528 195 482Q175 444 175 392V380H360V392Z" />
<glyph unicode="b" glyph-name="b" horiz-adv-x="486" d="M213 0H6V719H213Q320 719 397 658Q479 592 479 486Q479 415 434 356Q479 299 479 229Q479 124 396 59Q319 0 213 0ZM213 638H79V81H213Q292 81 342 113Q402 150 402 223Q402 268 377 303Q349 342 298
354Q403 390 403 490Q403 564 344 604Q292 638 213 638ZM229 370H105V609H229Q288 609 331 580Q383 547 383 489Q383 431 332 398Q289 370 229 370ZM229 111H105V340H229Q287 340 331 314Q383 282 383 225Q383 169 330 137Q287 111 229 111ZM229 528H179V451H229Q308
451 308 489Q308 528 229 528ZM229 259H179V192H229Q308 192 308 225Q308 243 276 253Q252 259 229 259Z" />
<glyph unicode="c" glyph-name="c" horiz-adv-x="448" d="M325 110Q223 110 160 183Q101 252 101 357Q101 462 160 532Q223 608 325 608H445V527H325Q256 527 215 478T174 357Q174 285 215 238T325 191H445V110H325ZM325 -1Q178 -1 87 111Q2 215 2 366Q2 517 88
615Q177 718 325 718H445V637H325Q210 637 143 561T75 366Q75 247 141 166Q211 80 325 80H445V-1H325Z" />
<glyph unicode="d" glyph-name="d" horiz-adv-x="527" d="M202 -1H1V718H202Q351 718 440 615Q525 517 525 366Q525 215 441 111Q350 -1 202 -1ZM202 637H75V80H202Q316 80 387 166Q453 247 453 366Q453 484 385 560T202 637ZM202 110H101V608H202Q305 608 367
532Q426 462 426 357Q426 252 367 183Q305 110 202 110ZM202 527H174V191H202Q271 191 314 239Q354 285 354 357Q354 428 313 477T202 527Z" />
<glyph unicode="e" glyph-name="e" horiz-adv-x="334" d="M175 527V460H303V379H102V608H329V527H175ZM4 -1V718H329V637H77V80H329V-1H4ZM102 110V348H303V267H175V191H329V110H102Z" />
<glyph unicode="f" glyph-name="f" horiz-adv-x="301" d="M102 366V453Q102 520 132 561Q166 607 232 607H295V526Q288 526 274 526Q263 527 257 527Q206 527 191 512T175 447H295V366H102ZM232 637Q77 637 77 453V-1H5V453Q5 568 60 639Q121 718 232 718H295V637H232ZM175
255V-1H102V336H295V255H175Z" />
<glyph unicode="g" glyph-name="g" horiz-adv-x="494" d="M329 527Q260 527 218 478T176 357Q176 289 214 242T317 192V267H256V348H390V110H329Q225 110 163 183Q103 252 103 357Q103 462 163 533Q225 608 329 608H489V527H329ZM329 -1Q180 -1 89 110Q4 214 4
366Q4 517 90 615Q180 718 329 718H489V637H329Q213 637 145 561T77 366Q77 247 143 166Q214 80 329 80H416V369H256V450H489V-1H329Z" />
<glyph unicode="h" glyph-name="h" horiz-adv-x="511" d="M429 -1V718H502V-1H429ZM108 376V718H181V457H330V718H403V376H108ZM330 -1V264H181V-1H108V345H403V-1H330ZM8 -1V718H82V-1H8Z" />
<glyph unicode="i" glyph-name="i" horiz-adv-x="174" d="M100 -1V718H170V-1H100ZM4 -1V718H75V-1H4Z" />
<glyph unicode="j" glyph-name="j" horiz-adv-x="406" d="M76 110H5V191Q20 191 47 190T87 189Q164 189 196 219T229 326V718H302V326Q302 110 76 110ZM76 -1H5V80H76Q327 80 327 326V718H400V326Q400 176 312 88T76 -1Z" />
<glyph unicode="k" glyph-name="k" horiz-adv-x="680" d="M595 -3L298 329L589 718H692L397 328L694 -3H595ZM104 134V718H178V363L447 718H548L104 134ZM447 -3L279 185L168 44Q132 -1 82 -1Q43 -1 22 29Q4 55 4 95V718H78V95Q78 79 85 79Q98 79 115 101L273
303L549 -3H447Z" />
<glyph unicode="l" glyph-name="l" horiz-adv-x="402" d="M329 110Q102 110 102 326V718H175V326Q175 252 205 222T309 190Q324 190 351 191Q386 191 398 191V110H329ZM329 -1Q180 -1 92 87T3 326V718H77V326Q77 80 329 80H398V-1H329Z" />
<glyph unicode="m" glyph-name="m" horiz-adv-x="899" d="M722 1V392Q722 528 627 528Q581 528 556 482Q537 444 537 392V1H462V392Q462 427 477 477Q515 609 627 609Q797 609 797 392V1H722ZM822 1V392Q822 510 784 568Q738 639 627 639Q548 639 509 604T451
476Q434 567 387 605Q345 639 267 639Q158 639 113 567Q77 509 77 392V1H2V392Q2 546 55 624Q118 720 267 720Q386 720 450 665Q513 720 627 720Q779 720 843 627Q896 550 896 392V1H822ZM362 1V392Q362 528 267 528Q221 528 196 482Q177 444 177 392V1H102V392Q102
478 139 537Q183 609 267 609Q340 609 374 578Q403 551 423 478Q437 425 437 392V1H362Z" />
<glyph unicode="n" glyph-name="n" horiz-adv-x="564" d="M482 -10Q432 -10 395 43L179 354V-1H105V584Q221 417 454 91Q468 72 475 72Q480 72 483 96Q484 109 484 131V718H558V95Q558 55 542 26Q521 -10 482 -10ZM116 618Q101 638 87 638Q80 638 80 622V-1H6V622Q6
662 25 689Q46 720 86 720Q137 720 169 673L385 363V718H458V133L116 618Z" />
<glyph unicode="o" glyph-name="o" horiz-adv-x="666" d="M342 -1H325Q176 -1 85 111Q-1 215 -1 366Q-1 526 90 622T342 718Q491 718 581 616Q667 518 667 367Q667 215 582 111Q491 -1 342 -1ZM325 637Q209 637 141 561T72 366Q72 247 139 166Q210 80 325 80H342Q457
80 528 167Q594 248 594 366Q594 493 523 565T325 637ZM325 110Q221 110 158 182Q99 251 99 356Q99 461 158 532Q222 608 325 608H342Q445 608 508 532Q567 462 567 357Q567 243 503 177T325 110ZM325 527Q255 527 213 478T171 356Q171 277 216 234T342 191Q412
191 454 240Q495 286 495 357Q495 437 450 482T325 527Z" />
<glyph unicode="p" glyph-name="p" horiz-adv-x="475" d="M225 289H101V608H225Q293 608 335 563T377 449Q377 380 335 335T225 289ZM209 179H174V-1H101V259H209Q292 259 346 312T401 449Q401 533 347 585T210 637H74V-1H2V718H210Q327 718 400 642T473 448Q473
329 400 254T209 179ZM225 527H174V370H225Q260 370 282 392T305 449Q305 483 283 505T225 527Z" />
<glyph unicode="q" glyph-name="q" horiz-adv-x="705" d="M612 -1L493 131Q590 241 590 366Q590 486 523 561Q453 637 335 637H316Q201 637 135 560T68 365Q68 243 136 164Q207 80 326 80Q395 80 465 113L567 -1H462L447 18Q392 -1 321 -1Q173 -1 81 110Q-6 215
-6 365Q-6 515 83 615Q176 718 325 718Q482 718 574 619Q663 523 663 365Q663 234 594 134L717 -1H612ZM474 150L353 287H455L471 270Q492 312 492 357Q492 434 445 480T321 527Q251 527 209 477T167 356Q167 295 199 251Q232 204 289 193L203 287H308L450 130Q391
110 321 110Q217 110 154 183Q94 251 94 356Q94 469 159 538T337 608Q437 608 503 529Q567 455 567 354Q567 251 474 150Z" />
<glyph unicode="r" glyph-name="r" horiz-adv-x="551" d="M463 -1L236 253Q333 280 376 319Q429 366 429 452Q429 544 364 593Q306 637 210 637H75V-1H1V718H210Q335 718 417 647Q505 572 505 449Q505 376 470 314T372 217L569 -1H463ZM316 -1Q264 56 174 158V-1H101V608H226Q299
608 348 567Q399 523 399 450Q399 403 374 362T306 303Q294 298 224 289Q191 285 191 269Q191 254 213 229L418 -1H316ZM226 527H174V354Q186 363 215 369Q237 372 259 376Q327 390 327 450Q327 487 295 508Q267 527 226 527Z" />
<glyph unicode="s" glyph-name="s" horiz-adv-x="468" d="M210 637Q148 637 108 601T68 502Q68 441 108 404T210 366H241Q299 366 339 333Q383 298 383 240Q383 181 342 146T241 110H8V191H241Q268 191 288 203T309 240Q309 271 272 281Q255 285 210 285Q115 285
56 346T-4 502Q-4 598 55 658T210 718H439V637H210ZM241 -1H8V80H241Q311 80 355 123T400 237Q400 307 356 351T241 396H210Q164 396 135 425T105 501Q105 547 134 577T210 608H439V527H210Q177 527 177 501Q177 477 221 477Q225 477 231 477T241 477Q343 477 407
409T472 237Q472 133 408 66T241 -1Z" />
<glyph unicode="t" glyph-name="t" horiz-adv-x="470" d="M4 637V718H466V637H4ZM321 527V-1H249V608H466V527H321ZM149 -1V527H4V608H222V-1H149Z" />
<glyph unicode="u" glyph-name="u" horiz-adv-x="541" d="M273 110Q105 110 105 326V718H178V326Q178 191 273 191Q318 191 343 237Q363 275 363 326V718H436V326Q436 240 399 181Q355 110 273 110ZM273 -1Q121 -1 57 91Q5 168 5 326V718H79V326Q79 209 117 151Q164
80 273 80Q380 80 426 152Q462 210 462 326V718H536V326Q536 174 483 95Q419 -1 273 -1Z" />
<glyph unicode="v" glyph-name="v" horiz-adv-x="542" d="M272 149L97 720H174L271 403L369 720H445L272 149ZM353 73Q331 0 271 0Q211 0 189 73L-7 720H71L259 98Q264 81 271 81Q278 81 283 98L473 720H549L353 73Z" />
<glyph unicode="w" glyph-name="w" horiz-adv-x="897" d="M626 110Q514 110 475 244Q461 292 461 327V719H536V327Q536 275 555 237Q580 191 626 191Q721 191 721 327V719H796V327Q796 110 626 110ZM626 0Q512 0 449 55Q385 0 266 0Q117 0 54 95Q1 173 1 327V719H76V327Q76
210 112 153Q157 81 266 81Q344 81 386 115Q433 153 450 244Q469 151 508 116T626 81Q737 81 783 151Q821 208 821 327V719H895V327Q895 169 843 92Q779 0 626 0ZM422 241Q402 169 372 142Q338 110 266 110Q182 110 138 182Q101 241 101 327V719H176V327Q176 275
195 237Q220 191 266 191Q361 191 361 327V719H436V327Q436 294 422 241Z" />
<glyph unicode="x" glyph-name="x" horiz-adv-x="526" d="M262 384L102 720H181L263 556L344 720H427L262 384ZM360 354L529 0H447L277 354L454 720H537L360 354ZM80 0H-6L166 354L-11 720H72L248 354L80 0ZM338 0L263 154L188 0H106L262 326L420 0H338Z" />
<glyph unicode="y" glyph-name="y" horiz-adv-x="527" d="M264 384L102 720H186L264 557L341 720H426L264 384ZM189 -1H107L455 720H538L189 -1ZM80 -1H-4L166 354L-11 720H71L250 354L80 -1Z" />
<glyph unicode="z" glyph-name="z" horiz-adv-x="459" d="M443 556Q440 548 368 419L242 191H458V110H109Q171 221 294 438Q323 487 377 587Q386 605 386 613Q386 637 350 637H10V718H350Q464 718 464 629Q464 601 443 556ZM110 -1Q-6 -1 -6 88Q-6 123 17 166Q36
202 225 527H10V608H357L83 127Q76 114 76 105Q76 80 110 80H458V-1H110Z" />
<glyph unicode="{" glyph-name="braceleft" horiz-adv-x="435" d="M385 109Q271 109 228 132Q199 147 183 187Q170 222 157 256L102 363Q121 393 139 422Q162 462 171 489Q186 537 188 542Q201 571 223 584Q264 609 361 609Q371 609 394 608Q416 607 430 608V527Q420
527 398 527T365 527Q287 527 267 518Q253 511 244 489Q230 453 230 452L177 363L230 261Q237 243 245 225T269 200Q289 191 348 190Q276 191 430 191V111Q421 110 407 110T385 109ZM345 -1Q216 -1 145 57Q110 86 92 151Q67 241 59 256L4 363L59 457Q79 492 92
539Q102 578 113 617Q128 658 161 679Q223 718 421 718H430V637Q379 638 376 638Q241 638 197 607Q175 592 159 536Q139 466 131 452L78 363L131 261Q149 215 167 169Q190 117 231 99Q277 80 430 80V-1H345Z" />
<glyph unicode="|" glyph-name="bar" horiz-adv-x="173" d="M99 -216V817H167V-216H99ZM5 -216V817H74V-216H5Z" />
<glyph unicode="}" glyph-name="braceright" horiz-adv-x="438" d="M378 260Q357 225 344 178Q334 139 324 100Q308 59 275 38Q213 -1 15 -1H6V80Q57 79 60 79Q196 79 240 110Q262 125 278 181Q298 251 306 265L358 354L306 456Q288 502 270 548Q247 600 205 618Q159
637 6 637V718H92Q221 718 291 660Q326 631 345 566Q370 476 378 461L433 354L378 260ZM279 260Q275 252 254 191Q240 148 214 133Q172 108 75 108Q66 108 43 109Q23 109 6 109V190Q17 190 39 190T71 190Q150 190 169 199Q184 206 192 228Q207 264 207 265L259
354L207 456Q200 474 192 492T166 518T89 527Q161 526 6 526V606Q15 607 30 607T52 608Q166 608 209 585Q238 570 254 530Q266 495 279 461L334 354L279 260Z" />
<glyph unicode="~" glyph-name="asciitilde" horiz-adv-x="880" />
</font>
</defs>
</svg>
