<?xml version="1.0" standalone="no"?>
<!DOCTYPE svg PUBLIC "-//W3C//DTD SVG 1.1//EN" "http://www.w3.org/Graphics/SVG/1.1/DTD/svg11.dtd" >
<svg>
<metadata>
Created by FontForge 20090914 at Fri Feb 24 06:32:21 2012
 By root
(C) 1999 Ray Larabie - Rlarabie@hotmail.com
</metadata>
<defs>
<font id="EndlessShowroom" horiz-adv-x="307" >
  <font-face 
    font-family="Endless Showroom"
    font-weight="900"
    font-stretch="normal"
    units-per-em="1000"
    panose-1="0 0 9 0 0 0 0 0 0 0"
    ascent="800"
    descent="-200"
    x-height="309"
    cap-height="564"
    bbox="-2 -216 882 837"
    underline-thickness="20"
    underline-position="-123"
    unicode-range="U+0020-U+2026"
  />
<missing-glyph horiz-adv-x="500" 
d="M63 0v834h375v-834h-375zM125 63h250v709h-250v-709z" />
    <glyph glyph-name=".notdef" horiz-adv-x="500" 
d="M63 0v834h375v-834h-375zM125 63h250v709h-250v-709z" />
    <glyph glyph-name=".null" horiz-adv-x="0" 
 />
    <glyph glyph-name="nonmarkingreturn" horiz-adv-x="413" 
 />
    <glyph glyph-name="space" unicode=" " horiz-adv-x="413" 
 />
    <glyph glyph-name="exclam" unicode="!" horiz-adv-x="271" 
d="M216 386l-76 -59l-77 59v119l77 59l76 -59v-119zM216 131l-76 -59l-77 59v119l77 59l76 -59v-119zM215 -9l-79 -59l-74 59l76 60z" />
    <glyph glyph-name="quotedbl" unicode="&#x22;" horiz-adv-x="486" 
d="M413 386l-76 -59l-76 59v119l76 59l76 -59v-119zM230 386l-77 -59l-76 59v119l76 59l77 -59v-119z" />
    <glyph glyph-name="dollar" unicode="$" horiz-adv-x="565" 
d="M365 649h-152v36l76 60l76 -60v-36zM442 573l-76 -60h-153l-76 60l76 59h153zM531 131l-76 -59l-77 59v119l77 59l76 -59v-119zM443 318l-76 -59h-153l-76 59l76 59h153zM203 386l-77 -59l-76 59v119l76 59l77 -59v-119zM442 60l-77 -59h-152l-77 59l77 60h152zM365 -50
l-76 -60l-76 60v36h152v-36z" />
    <glyph glyph-name="percent" unicode="%" horiz-adv-x="711" 
d="M524 505l-268 -458h-108v84l268 458h108v-84zM329 441l-42 -35l-42 35v70l42 35l42 -35v-70zM281 551l-42 -35h-84l-42 35l42 35h84zM280 399l-42 -35h-84l-42 35l42 35h84zM149 441l-42 -35l-42 35v70l42 35l42 -35v-70zM678 115l-42 -35l-42 35v70l42 35l42 -35v-70z
M630 225l-42 -35h-84l-42 35l42 35h84zM629 73l-42 -35h-84l-42 35l42 35h84zM498 115l-42 -35l-42 35v70l42 35l42 -35v-70z" />
    <glyph glyph-name="ampersand" unicode="&#x26;" horiz-adv-x="571" 
d="M571 318l-77 -60h-102l-77 60l77 59h102zM377 386l-77 -59l-76 59v119l76 59l77 -59v-119zM377 131l-77 -59l-76 59v119l76 59l77 -59v-119zM289 318l-77 -59h-102l-76 59l76 59h102z" />
    <glyph glyph-name="quotesingle" unicode="'" horiz-adv-x="303" 
d="M230 386l-77 -59l-76 59v119l76 59l77 -59v-119z" />
    <glyph glyph-name="parenleft" unicode="(" horiz-adv-x="427" 
d="M390 532l-198 -199h-108v84l198 199h108v-84zM386 20h-108l-197 195v84h108l197 -195v-84z" />
    <glyph glyph-name="parenright" unicode=")" horiz-adv-x="453" 
d="M95 532l197 -199h108v84l-198 199h-107v-84zM98 20h108l198 195v84h-108l-198 -195v-84z" />
    <glyph glyph-name="asterisk" unicode="*" horiz-adv-x="576" 
d="M526 421l-28 -22h-108v84l28 22h108v-84zM567 318l-76 -60h-103l-76 60l76 59h103zM373 386l-76 -59l-76 59v119l76 59l76 -59v-119zM526 134h-108l-28 22v84h108l28 -22v-84zM205 399h-108l-28 22v84h108l28 -22v-84zM373 131l-76 -59l-76 59v119l76 59l76 -59v-119z
M285 318l-76 -59h-102l-77 59l77 59h102zM205 156l-28 -22h-108v84l28 22h108v-84z" />
    <glyph glyph-name="plus" unicode="+" horiz-adv-x="542" 
d="M542 318l-77 -60h-102l-77 60l77 59h102zM348 386l-77 -59l-76 59v119l76 59l77 -59v-119zM348 131l-77 -59l-76 59v119l76 59l77 -59v-119zM260 318l-77 -59h-102l-76 59l76 59h102z" />
    <glyph glyph-name="comma" unicode="," horiz-adv-x="154" 
d="M154 -127l-76 -60l-76 60v118l76 60l76 -60v-118z" />
    <glyph glyph-name="hyphen" unicode="-" horiz-adv-x="359" 
d="M354 318l-76 -59h-153l-76 59l76 59h153z" />
    <glyph glyph-name="hyphen" unicode="&#x2010;" horiz-adv-x="359" 
d="M354 318l-76 -59h-153l-76 59l76 59h153z" />
    <glyph glyph-name="period" unicode="." horiz-adv-x="154" 
d="M154 -9l-79 -59l-73 59l76 60z" />
    <glyph glyph-name="slash" unicode="/" horiz-adv-x="479" 
d="M441 505l-268 -458h-108v84l268 458h108v-84z" />
    <glyph glyph-name="zero" unicode="0" horiz-adv-x="592" 
d="M542 386l-76 -59l-77 59v119l77 59l76 -59v-119zM453 573l-76 -60h-153l-76 60l76 59h153zM542 131l-76 -59l-77 59v119l77 59l76 -59v-119zM214 386l-76 -59l-77 59v119l77 59l76 -59v-119zM453 60l-77 -59h-152l-77 59l77 60h152zM214 131l-76 -59l-77 59v119l77 59
l76 -59v-119z" />
    <glyph glyph-name="one" unicode="1" horiz-adv-x="272" 
d="M216 386l-77 -59l-76 59v119l76 59l77 -59v-119zM216 131l-77 -59l-76 59v119l76 59l77 -59v-119z" />
    <glyph glyph-name="two" unicode="2" horiz-adv-x="569" 
d="M527 386l-76 -59l-76 59v119l76 59l76 -59v-119zM439 573l-77 -60h-152l-76 60l76 59h152zM439 318l-76 -59h-152l-77 59l77 59h152zM438 60l-76 -59h-153l-76 59l76 60h153zM199 131l-76 -59l-76 59v119l76 59l76 -59v-119z" />
    <glyph glyph-name="three" unicode="3" horiz-adv-x="528" 
d="M478 386l-77 -59l-76 59v119l76 59l77 -59v-119zM389 573l-76 -60h-153l-76 60l76 59h153zM478 131l-77 -59l-76 59v119l76 59l77 -59v-119zM390 318l-76 -59h-153l-76 59l76 59h153zM388 60l-76 -59h-152l-77 59l77 60h152z" />
    <glyph glyph-name="four" unicode="4" horiz-adv-x="600" 
d="M544 386l-77 -59l-76 59v119l76 59l77 -59v-119zM544 131l-77 -59l-76 59v119l76 59l77 -59v-119zM456 318l-76 -59h-153l-76 59l76 59h153zM216 386l-77 -59l-76 59v119l76 59l77 -59v-119z" />
    <glyph glyph-name="five" unicode="5" horiz-adv-x="565" 
d="M442 573l-76 -60h-153l-76 60l76 59h153zM531 131l-76 -59l-77 59v119l77 59l76 -59v-119zM443 318l-76 -59h-153l-76 59l76 59h153zM203 386l-77 -59l-76 59v119l76 59l77 -59v-119zM442 60l-77 -59h-152l-77 59l77 60h152z" />
    <glyph glyph-name="six" unicode="6" horiz-adv-x="565" 
d="M442 573l-76 -60h-153l-76 60l76 59h153zM531 131l-76 -59l-77 59v119l77 59l76 -59v-119zM443 318l-76 -59h-153l-76 59l76 59h153zM203 386l-77 -59l-76 59v119l76 59l77 -59v-119zM442 60l-77 -59h-152l-77 59l77 60h152zM203 131l-77 -59l-76 59v119l76 59l77 -59
v-119z" />
    <glyph glyph-name="seven" unicode="7" horiz-adv-x="533" 
d="M477 386l-76 -59l-77 59v119l77 59l76 -59v-119zM388 573l-76 -60h-152l-77 60l77 59h152zM477 131l-76 -59l-77 59v119l77 59l76 -59v-119z" />
    <glyph glyph-name="eight" unicode="8" horiz-adv-x="592" 
d="M542 386l-76 -59l-77 59v119l77 59l76 -59v-119zM453 573l-76 -60h-153l-76 60l76 59h153zM542 131l-76 -59l-77 59v119l77 59l76 -59v-119zM454 318l-76 -59h-153l-76 59l76 59h153zM214 386l-76 -59l-77 59v119l77 59l76 -59v-119zM453 60l-77 -59h-152l-77 59l77 60
h152zM214 131l-76 -59l-77 59v119l77 59l76 -59v-119z" />
    <glyph glyph-name="nine" unicode="9" horiz-adv-x="592" 
d="M542 386l-76 -59l-77 59v119l77 59l76 -59v-119zM453 573l-76 -60h-153l-76 60l76 59h153zM542 131l-76 -59l-77 59v119l77 59l76 -59v-119zM454 318l-76 -59h-153l-76 59l76 59h153zM214 386l-76 -59l-77 59v119l77 59l76 -59v-119zM453 60l-77 -59h-152l-77 59l77 60
h152z" />
    <glyph glyph-name="colon" unicode=":" horiz-adv-x="180" 
d="M178 318l-79 -59l-76 59l76 59zM175 -9l-79 -59l-73 59l76 60z" />
    <glyph glyph-name="semicolon" unicode=";" horiz-adv-x="180" 
d="M178 318l-79 -59l-76 59l76 59zM175 -127l-76 -60l-76 60v118l76 60l76 -60v-118z" />
    <glyph glyph-name="less" unicode="&#x3c;" horiz-adv-x="399" 
d="M361 532l-198 -199h-108v84l198 199h108v-84zM357 20h-108l-197 195v84h108l197 -195v-84z" />
    <glyph glyph-name="equal" unicode="=" horiz-adv-x="335" 
d="M335 318l-76 -59h-153l-76 59l76 59h153zM334 60l-77 -59h-152l-76 59l76 60h152z" />
    <glyph glyph-name="greater" unicode="&#x3e;" horiz-adv-x="417" 
d="M59 532l197 -199h108v84l-198 199h-107v-84zM62 20h108l198 195v84h-108l-198 -195v-84z" />
    <glyph glyph-name="question" unicode="?" horiz-adv-x="559" 
d="M524 386l-77 -59l-76 59v119l76 59l77 -59v-119zM435 573l-76 -60h-153l-76 60l76 59h153zM436 318l-76 -59h-153l-76 59l76 59h153zM196 131l-77 -59l-76 59v119l76 59l77 -59v-119zM195 -9l-79 -59l-74 59l76 60z" />
    <glyph glyph-name="A" unicode="A" horiz-adv-x="597" 
d="M542 386l-76 -59l-76 59v119l76 59l76 -59v-119zM454 573l-76 -60h-153l-76 60l76 59h153zM542 131l-76 -59l-76 59v119l76 59l76 -59v-119zM455 318l-77 -59h-152l-77 59l77 59h152zM214 386l-76 -59l-76 59v119l76 59l76 -59v-119zM214 131l-76 -59l-76 59v119l76 59
l76 -59v-119z" />
    <glyph glyph-name="B" unicode="B" horiz-adv-x="583" 
d="M538 131l-76 -59l-77 59v119l77 59l76 -59v-119zM450 318l-76 -59h-153l-76 59l76 59h153zM210 386l-77 -59l-76 59v119l76 59l77 -59v-119zM449 60l-77 -59h-152l-77 59l77 60h152zM210 131l-77 -59l-76 59v119l76 59l77 -59v-119z" />
    <glyph glyph-name="C" unicode="C" horiz-adv-x="394" 
d="M394 573l-76 -60h-152l-77 60l77 59h152zM155 386l-76 -59l-77 59v119l77 59l76 -59v-119zM394 60l-77 -59h-152l-77 59l77 60h152zM155 131l-76 -59l-77 59v119l77 59l76 -59v-119z" />
    <glyph glyph-name="D" unicode="D" horiz-adv-x="597" 
d="M543 386l-76 -59l-77 59v119l77 59l76 -59v-119zM543 131l-76 -59l-77 59v119l77 59l76 -59v-119zM455 318l-76 -59h-153l-76 59l76 59h153zM454 60l-77 -59h-152l-77 59l77 60h152zM215 131l-76 -59l-77 59v119l77 59l76 -59v-119z" />
    <glyph glyph-name="E" unicode="E" horiz-adv-x="401" 
d="M400 573l-76 -60h-152l-77 60l77 59h152zM401 318l-76 -59h-153l-76 59l76 59h153zM161 386l-76 -59l-77 59v119l77 59l76 -59v-119zM400 60l-77 -59h-152l-77 59l77 60h152zM161 131l-76 -59l-77 59v119l77 59l76 -59v-119z" />
    <glyph glyph-name="F" unicode="F" horiz-adv-x="398" 
d="M397 573l-76 -60h-152l-77 60l77 59h152zM398 318l-76 -59h-153l-76 59l76 59h153zM158 386l-76 -59l-77 59v119l77 59l76 -59v-119zM158 131l-76 -59l-77 59v119l77 59l76 -59v-119z" />
    <glyph glyph-name="G" unicode="G" horiz-adv-x="581" 
d="M448 573l-76 -60h-152l-77 60l77 59h152zM537 131l-76 -59l-77 59v119l77 59l76 -59v-119zM209 386l-76 -59l-77 59v119l77 59l76 -59v-119zM448 60l-77 -59h-152l-77 59l77 60h152zM209 131l-76 -59l-77 59v119l77 59l76 -59v-119z" />
    <glyph glyph-name="H" unicode="H" horiz-adv-x="600" 
d="M544 386l-77 -59l-76 59v119l76 59l77 -59v-119zM544 131l-77 -59l-76 59v119l76 59l77 -59v-119zM456 318l-76 -59h-153l-76 59l76 59h153zM216 386l-77 -59l-76 59v119l76 59l77 -59v-119zM216 131l-77 -59l-76 59v119l76 59l77 -59v-119z" />
    <glyph glyph-name="I" unicode="I" horiz-adv-x="272" 
d="M216 386l-77 -59l-76 59v119l76 59l77 -59v-119zM216 131l-77 -59l-76 59v119l76 59l77 -59v-119z" />
    <glyph glyph-name="J" unicode="J" horiz-adv-x="532" 
d="M479 386l-77 -59l-76 59v119l76 59l77 -59v-119zM479 131l-77 -59l-76 59v119l76 59l77 -59v-119zM390 60l-77 -59h-152l-77 59l77 60h152z" />
    <glyph glyph-name="K" unicode="K" horiz-adv-x="556" 
d="M519 532l-197 -199h-108v84l197 199h108v-84zM195 386l-76 -59l-76 59v119l76 59l76 -59v-119zM515 20h-108l-197 195v84h108l197 -195v-84zM195 131l-76 -59l-76 59v119l76 59l76 -59v-119z" />
    <glyph glyph-name="L" unicode="L" horiz-adv-x="390" 
d="M151 386l-76 -59l-77 59v119l77 59l76 -59v-119zM390 60l-77 -59h-152l-77 59l77 60h152zM151 131l-76 -59l-77 59v119l77 59l76 -59v-119z" />
    <glyph glyph-name="M" unicode="M" horiz-adv-x="893" 
d="M838 386l-77 -59l-76 59v119l76 59l77 -59v-119zM718 548l-150 -115h-108v84l151 115h107v-84zM838 131l-77 -59l-76 59v119l76 59l77 -59v-119zM439 433h-108l-150 115v84h108l150 -115v-84zM214 386l-76 -59l-76 59v119l76 59l76 -59v-119zM214 131l-76 -59l-76 59v119
l76 59l76 -59v-119z" />
    <glyph glyph-name="N" unicode="N" horiz-adv-x="597" 
d="M542 386l-76 -59l-76 59v119l76 59l76 -59v-119zM454 573l-76 -60h-153l-76 60l76 59h153zM542 131l-76 -59l-76 59v119l76 59l76 -59v-119zM214 386l-76 -59l-76 59v119l76 59l76 -59v-119zM214 131l-76 -59l-76 59v119l76 59l76 -59v-119z" />
    <glyph glyph-name="O" unicode="O" horiz-adv-x="592" 
d="M542 386l-76 -59l-77 59v119l77 59l76 -59v-119zM453 573l-76 -60h-153l-76 60l76 59h153zM542 131l-76 -59l-77 59v119l77 59l76 -59v-119zM214 386l-76 -59l-77 59v119l77 59l76 -59v-119zM453 60l-77 -59h-152l-77 59l77 60h152zM214 131l-76 -59l-77 59v119l77 59
l76 -59v-119z" />
    <glyph glyph-name="P" unicode="P" horiz-adv-x="554" 
d="M524 386l-77 -59l-76 59v119l76 59l77 -59v-119zM435 573l-76 -60h-153l-76 60l76 59h153zM436 318l-76 -59h-153l-76 59l76 59h153zM196 386l-77 -59l-76 59v119l76 59l77 -59v-119zM196 131l-77 -59l-76 59v119l76 59l77 -59v-119z" />
    <glyph glyph-name="Q" unicode="Q" horiz-adv-x="596" 
d="M542 386l-76 -59l-76 59v119l76 59l76 -59v-119zM454 573l-77 -60h-152l-77 60l77 59h152zM542 131l-76 -59l-76 59v119l76 59l76 -59v-119zM214 386l-76 -59l-76 59v119l76 59l76 -59v-119zM539 -35h-111l-31 28l108 84l34 -28v-84zM453 60l-76 -59h-153l-76 59l76 60
h153zM214 131l-76 -59l-76 59v119l76 59l76 -59v-119z" />
    <glyph glyph-name="R" unicode="R" horiz-adv-x="581" 
d="M538 386l-77 -59l-76 59v119l76 59l77 -59v-119zM449 573l-76 -60h-153l-76 60l76 59h153zM450 318l-76 -59h-153l-76 59l76 59h153zM210 386l-77 -59l-76 59v119l76 59l77 -59v-119zM538 0h-108l-203 159v84h108l203 -159v-84zM210 131l-77 -59l-76 59v119l76 59l77 -59
v-119z" />
    <glyph glyph-name="S" unicode="S" horiz-adv-x="565" 
d="M442 573l-76 -60h-153l-76 60l76 59h153zM531 131l-76 -59l-77 59v119l77 59l76 -59v-119zM443 318l-76 -59h-153l-76 59l76 59h153zM203 386l-77 -59l-76 59v119l76 59l77 -59v-119zM442 60l-77 -59h-152l-77 59l77 60h152z" />
    <glyph glyph-name="T" unicode="T" horiz-adv-x="507" 
d="M507 573l-76 -59l-89 -1l-76 60l76 59h89zM330 386l-76 -59l-77 59v119l77 59l76 -59v-119zM241 573l-76 -60h-89l-77 59l77 60h89zM330 131l-76 -59l-77 59v119l77 59l76 -59v-119z" />
    <glyph glyph-name="U" unicode="U" horiz-adv-x="597" 
d="M543 386l-76 -59l-77 59v119l77 59l76 -59v-119zM543 131l-76 -59l-77 59v119l77 59l76 -59v-119zM215 386l-76 -59l-77 59v119l77 59l76 -59v-119zM454 60l-77 -59h-152l-77 59l77 60h152zM215 131l-76 -59l-77 59v119l77 59l76 -59v-119z" />
    <glyph glyph-name="V" unicode="V" horiz-adv-x="596" 
d="M543 386l-77 -59l-76 59v119l76 59l77 -59v-119zM543 191l-77 -59l-76 59v59l76 59l77 -59v-59zM215 386l-77 -59l-76 59v119l76 59l77 -59v-119zM495 0h-108l-278 215v84h108l278 -215v-84z" />
    <glyph glyph-name="W" unicode="W" horiz-adv-x="891" 
d="M838 387l-76 -60l-76 60v119l76 59l76 -59v-119zM838 131l-76 -59l-76 59v119l76 60l76 -60v-119zM719 4h-108l-150 116v84h108l150 -116v-84zM215 387l-76 -60l-77 60v119l77 59l76 -59v-119zM440 120l-151 -116h-108v84l151 116h108v-84zM215 131l-76 -59l-77 59v119
l77 60l76 -60v-119z" />
    <glyph glyph-name="X" unicode="X" horiz-adv-x="588" 
d="M536 498l-127 -176h-108v84l127 176h108v-84zM294 322h-108l-128 176v84h108l128 -176v-84zM536 49h-108l-127 173v84h108l127 -174v-83zM294 222l-128 -173h-108v83l128 174h108v-84z" />
    <glyph glyph-name="Y" unicode="Y" horiz-adv-x="600" 
d="M544 386l-77 -59l-76 59v119l76 59l77 -59v-119zM544 131l-77 -59l-76 59v119l76 59l77 -59v-119zM456 318l-76 -59h-153l-76 59l76 59h153zM216 386l-77 -59l-76 59v119l76 59l77 -59v-119z" />
    <glyph glyph-name="Z" unicode="Z" horiz-adv-x="569" 
d="M527 386l-76 -59l-76 59v119l76 59l76 -59v-119zM439 573l-77 -60h-152l-76 60l76 59h152zM439 318l-76 -59h-152l-77 59l77 59h152zM438 60l-76 -59h-153l-76 59l76 60h153zM199 131l-76 -59l-76 59v119l76 59l76 -59v-119z" />
    <glyph glyph-name="bracketleft" unicode="[" horiz-adv-x="318" 
d="M318 573l-76 -60h-22l-77 60l77 59h22zM209 386l-76 -59l-77 59v119l77 59l76 -59v-119zM209 131l-76 -59l-77 59v119l77 59l76 -59v-119zM318 60l-77 -59h-22l-77 59l77 60h22z" />
    <glyph glyph-name="backslash" unicode="\" horiz-adv-x="504" 
d="M77 505l268 -458h108v84l-268 458h-108v-84z" />
    <glyph glyph-name="bracketright" unicode="]" horiz-adv-x="363" 
d="M50 573l77 -60h22l77 60l-77 59h-22zM160 386l76 -59l77 59v119l-77 59l-76 -59v-119zM160 131l76 -59l77 59v119l-77 59l-76 -59v-119zM51 60l77 -59h22l76 59l-76 60h-22z" />
    <glyph glyph-name="asciicircum" unicode="^" horiz-adv-x="637" 
d="M541 567q35 -16 35 -45q0 -25 -21 -41t-47 -16q-17 0 -35 8l-157 69l-158 -70q-18 -8 -35 -8q-26 0 -46.5 16t-20.5 41q0 31 36 47l192 85q32 14 66 -1z" />
    <glyph glyph-name="underscore" unicode="_" horiz-adv-x="832" 
d="M763 -77h-690q-68 0 -68 55q0 26 20 40t48 14h690q27 0 46 -13q23 -15 23 -41q0 -27 -20.5 -41t-48.5 -14z" />
    <glyph glyph-name="grave" unicode="`" horiz-adv-x="289" 
d="M84 642l36 -102l79 -54l26 54l-31 102l-75 48z" />
    <glyph glyph-name="a" unicode="a" horiz-adv-x="592" 
d="M542 386l-76 -59l-77 59v119l77 59l76 -59v-119zM453 573l-76 -60h-153l-76 60l76 59h153zM542 131l-76 -59l-77 59v119l77 59l76 -59v-119zM454 318l-76 -59h-153l-76 59l76 59h153zM453 60l-77 -59h-152l-77 59l77 60h152zM214 131l-76 -59l-77 59v119l77 59l76 -59
v-119z" />
    <glyph glyph-name="b" unicode="b" horiz-adv-x="608" 
d="M564 131l-76 -59l-77 59v119l77 59l76 -59v-119zM476 318l-76 -59h-153l-76 59l76 59h153zM236 386l-77 -59l-76 59v119l76 59l77 -59v-119zM475 60l-77 -59h-152l-77 59l77 60h152zM236 131l-77 -59l-76 59v119l76 59l77 -59v-119z" />
    <glyph glyph-name="c" unicode="c" horiz-adv-x="403" 
d="M402 318l-76 -59h-153l-76 59l76 59h153zM401 60l-77 -59h-152l-77 59l77 60h152zM162 131l-76 -59l-77 59v119l77 59l76 -59v-119z" />
    <glyph glyph-name="d" unicode="d" horiz-adv-x="627" 
d="M576 386l-76 -59l-77 59v119l77 59l76 -59v-119zM576 131l-76 -59l-77 59v119l77 59l76 -59v-119zM488 318l-76 -59h-153l-76 59l76 59h153zM487 60l-77 -59h-152l-77 59l77 60h152zM248 131l-76 -59l-77 59v119l77 59l76 -59v-119z" />
    <glyph glyph-name="e" unicode="e" horiz-adv-x="413" 
d="M412 573l-76 -60h-152l-77 60l77 59h152zM413 318l-76 -59h-153l-76 59l76 59h153zM173 386l-76 -59l-77 59v119l77 59l76 -59v-119zM412 60l-77 -59h-152l-77 59l77 60h152zM173 131l-76 -59l-77 59v119l77 59l76 -59v-119z" />
    <glyph glyph-name="f" unicode="f" horiz-adv-x="407" 
d="M406 573l-76 -60h-152l-77 60l77 59h152zM407 318l-76 -59h-153l-76 59l76 59h153zM167 386l-76 -59l-77 59v119l77 59l76 -59v-119zM167 131l-76 -59l-77 59v119l77 59l76 -59v-119z" />
    <glyph glyph-name="g" unicode="g" horiz-adv-x="592" 
d="M542 386l-76 -59l-77 59v119l77 59l76 -59v-119zM453 573l-76 -60h-153l-76 60l76 59h153zM542 131l-76 -59l-77 59v119l77 59l76 -59v-119zM454 318l-76 -59h-153l-76 59l76 59h153zM214 386l-76 -59l-77 59v119l77 59l76 -59v-119zM453 60l-77 -59h-152l-77 59l77 60
h152z" />
    <glyph glyph-name="h" unicode="h" horiz-adv-x="576" 
d="M534 131l-76 -59l-76 59v119l76 59l76 -59v-119zM446 318l-76 -59h-153l-76 59l76 59h153zM206 386l-76 -59l-77 59v119l77 59l76 -59v-119zM206 131l-76 -59l-77 59v119l77 59l76 -59v-119z" />
    <glyph glyph-name="i" unicode="i" horiz-adv-x="259" 
d="M212 505l-77 -58l-76 58l76 59zM212 131l-77 -59l-76 59v119l76 59l77 -59v-119z" />
    <glyph glyph-name="j" unicode="j" horiz-adv-x="505" 
d="M471 505l-77 -58l-76 58l76 59zM469 131l-77 -59l-76 59v119l76 59l77 -59v-119zM380 60l-77 -59h-152l-77 59l77 60h152z" />
    <glyph glyph-name="k" unicode="k" horiz-adv-x="537" 
d="M406 421l-88 -88h-108v84l88 88h108v-84zM191 386l-76 -59l-76 59v119l76 59l76 -59v-119zM511 20h-108l-197 195v84h108l197 -195v-84zM191 131l-76 -59l-76 59v119l76 59l76 -59v-119z" />
    <glyph glyph-name="l" unicode="l" horiz-adv-x="302" 
d="M249 386l-77 -59l-76 59v119l76 59l77 -59v-119zM249 131l-77 -59l-76 59v119l76 59l77 -59v-119z" />
    <glyph glyph-name="m" unicode="m" horiz-adv-x="942" 
d="M882 131l-77 -59l-76 59v119l76 59l77 -59v-119zM794 318l-76 -59h-153l-76 59l76 59h153zM554 131l-77 -59l-76 59v119l76 59l77 -59v-119zM466 318l-76 -59h-153l-76 59l76 59h153zM226 131l-77 -59l-76 59v119l76 59l77 -59v-119z" />
    <glyph glyph-name="n" unicode="n" horiz-adv-x="614" 
d="M554 131l-77 -59l-76 59v119l76 59l77 -59v-119zM466 318l-76 -59h-153l-76 59l76 59h153zM226 131l-77 -59l-76 59v119l76 59l77 -59v-119z" />
    <glyph glyph-name="o" unicode="o" horiz-adv-x="609" 
d="M550 131l-76 -59l-77 59v119l77 59l76 -59v-119zM462 318l-76 -59h-153l-76 59l76 59h153zM461 60l-77 -59h-152l-77 59l77 60h152zM222 131l-76 -59l-77 59v119l77 59l76 -59v-119z" />
    <glyph glyph-name="p" unicode="p" horiz-adv-x="577" 
d="M550 386l-77 -59l-76 59v119l76 59l77 -59v-119zM461 573l-76 -60h-153l-76 60l76 59h153zM462 318l-76 -59h-153l-76 59l76 59h153zM222 386l-77 -59l-76 59v119l76 59l77 -59v-119zM222 131l-77 -59l-76 59v119l76 59l77 -59v-119z" />
    <glyph glyph-name="q" unicode="q" horiz-adv-x="594" 
d="M542 386l-76 -59l-77 59v119l77 59l76 -59v-119zM454 573l-77 -60h-152l-77 60l77 59h152zM542 131l-76 -59l-77 59v119l77 59l76 -59v-119zM454 318l-76 -59h-153l-76 59l76 59h153zM214 386l-76 -59l-77 59v119l77 59l76 -59v-119z" />
    <glyph glyph-name="r" unicode="r" horiz-adv-x="398" 
d="M398 318l-76 -59h-153l-76 59l76 59h153zM158 131l-76 -59l-77 59v119l77 59l76 -59v-119z" />
    <glyph glyph-name="s" unicode="s" horiz-adv-x="592" 
d="M469 573l-76 -60h-153l-76 60l76 59h153zM558 131l-76 -59l-77 59v119l77 59l76 -59v-119zM470 318l-76 -59h-153l-76 59l76 59h153zM230 386l-77 -59l-76 59v119l76 59l77 -59v-119zM469 60l-77 -59h-152l-77 59l77 60h152z" />
    <glyph glyph-name="t" unicode="t" horiz-adv-x="397" 
d="M397 318l-76 -59h-153l-76 59l76 59h153zM157 386l-76 -59l-77 59v119l77 59l76 -59v-119zM396 60l-77 -59h-152l-77 59l77 60h152zM157 131l-76 -59l-77 59v119l77 59l76 -59v-119z" />
    <glyph glyph-name="u" unicode="u" horiz-adv-x="614" 
d="M553 131l-76 -59l-77 59v119l77 59l76 -59v-119zM464 60l-77 -59h-152l-76 59l76 60h152zM225 131l-76 -59l-77 59v119l77 59l76 -59v-119z" />
    <glyph glyph-name="v" unicode="v" horiz-adv-x="578" 
d="M517 191l-76 -59l-76 59v59l76 59l76 -59v-59zM469 0h-107l-278 215v84h108l277 -215v-84z" />
    <glyph glyph-name="w" unicode="w" horiz-adv-x="942" 
d="M881 131l-76 -59l-77 59v119l77 59l76 -59v-119zM792 60l-77 -59h-152l-76 59l76 60h152zM553 131l-76 -59l-77 59v119l77 59l76 -59v-119zM464 60l-77 -59h-152l-76 59l76 60h152zM225 131l-76 -59l-77 59v119l77 59l76 -59v-119z" />
    <glyph glyph-name="x" unicode="x" horiz-adv-x="618" 
d="M568 498l-127 -176h-108v84l127 176h108v-84zM326 322h-108l-128 176v84h108l128 -176v-84zM568 49h-108l-127 173v84h108l127 -174v-83zM326 222l-128 -173h-108v83l128 174h108v-84z" />
    <glyph glyph-name="y" unicode="y" horiz-adv-x="630" 
d="M577 386l-77 -59l-76 59v119l76 59l77 -59v-119zM577 131l-77 -59l-76 59v119l76 59l77 -59v-119zM489 318l-76 -59h-153l-76 59l76 59h153zM249 386l-77 -59l-76 59v119l76 59l77 -59v-119z" />
    <glyph glyph-name="z" unicode="z" horiz-adv-x="587" 
d="M554 386l-76 -59l-76 59v119l76 59l76 -59v-119zM466 573l-77 -60h-152l-76 60l76 59h152zM466 318l-76 -59h-152l-77 59l77 59h152zM465 60l-76 -59h-153l-76 59l76 60h153zM226 131l-76 -59l-76 59v119l76 59l76 -59v-119z" />
    <glyph glyph-name="braceleft" unicode="{" horiz-adv-x="288" 
d="M288 573l-76 -60h-22l-77 60l77 59h22zM179 386l-76 -59l-77 59v119l77 59l76 -59v-119zM179 131l-76 -59l-77 59v119l77 59l76 -59v-119zM288 60l-77 -59h-22l-77 59l77 60h22z" />
    <glyph glyph-name="bar" unicode="|" horiz-adv-x="266" 
d="M208 -15q0 -27 -20 -41t-49 -14q-68 0 -68 55v625q0 55 68 55q29 0 49 -14t20 -41v-625z" />
    <glyph glyph-name="braceright" unicode="}" horiz-adv-x="407" 
d="M93 573l77 -60h22l77 60l-77 59h-22zM203 386l76 -59l77 59v119l-77 59l-76 -59v-119zM203 131l76 -59l77 59v119l-77 59l-76 -59v-119zM94 60l77 -59h22l76 59l-76 60h-22z" />
    <glyph glyph-name="asciitilde" unicode="~" horiz-adv-x="175" 
d="M175 671l-24 -24h-33l-12 14l-10 -14h-27l23 24h29l14 -14l13 14h27z" />
    <glyph glyph-name="exclamdown" unicode="&#xa1;" horiz-adv-x="283" 
d="M229 30l-76 59l-77 -59v-119l77 -59l76 59v119zM229 285l-76 60l-77 -60v-119l77 -59l76 59v119zM228 425l-79 59l-74 -59l76 -60z" />
    <glyph glyph-name="cent" unicode="&#xa2;" horiz-adv-x="433" 
d="M429 318l-77 -59h-152l-77 59l77 59h152zM427 60l-76 -59h-153l-76 59l76 60h153zM188 131l-76 -59l-76 59v119l76 59l76 -59v-119zM332 445l-102 -589h-41v108l102 589h41v-108z" />
    <glyph glyph-name="sterling" unicode="&#xa3;" horiz-adv-x="535" 
d="M492 148q-8 -65 -41 -108q-38 -51 -99 -52q-40 0 -85 26q-15 9 -74 52q-38 -77 -91 -78q-26 0 -41.5 18t-15.5 45q0 34 23 55t57 21q18 0 42 -3v15q1 8 1 22q1 38 -10 161h-95v46h95q-5 68 -6 97q0 55 21 104q24 53 67.5 80t91.5 27t84 -26q40 -29 40 -74
q1 -15 -11 -27.5t-27 -12.5q-19 0 -31 19q-4 7 -8 40q-3 29 -16.5 41.5t-42.5 12.5q-88 1 -88 -137q0 -29 5 -91q2 -26 5 -53h126v-46h-126v-6q1 -8 1 -27q1 -83 -30 -175q93 -30 109 -34q26 -6 50 -6q79 0 103 78zM161 84q-22 13 -42 14q-45 1 -46 -43q-1 -38 32 -38
q39 0 56 67z" />
    <glyph glyph-name="currency" unicode="&#xa4;" horiz-adv-x="581" 
d="M531 124l-28 -27l-70 70q-65 -50 -132 -51q-94 -1 -144 51l-71 -70l-27 27l70 70q-50 57 -50 138q0 76 50 138l-70 69l27 28l71 -69q56 48 140 49q78 1 136 -49l70 69l28 -28l-70 -69q49 -63 50 -137q1 -75 -50 -139zM472 332q1 47 -24 89t-66 64.5t-86 22.5
q-74 0 -125.5 -51.5t-51.5 -125.5q0 -73 51.5 -124t124.5 -52q74 -1 125.5 51t51.5 126z" />
    <glyph glyph-name="yen" unicode="&#xa5;" 
 />
    <glyph glyph-name="brokenbar" unicode="&#xa6;" horiz-adv-x="163" 
d="M106 332h-40v362h40v-362zM106 -216h-40v362h40v-362z" />
    <glyph glyph-name="section" unicode="&#xa7;" 
 />
    <glyph glyph-name="dieresis" unicode="&#xa8;" horiz-adv-x="309" 
d="M308 600l-53 -53l-53 53l53 53zM136 600l-53 -53l-53 53l53 53z" />
    <glyph glyph-name="copyright" unicode="&#xa9;" horiz-adv-x="786" 
d="M509 510l-51 -41h-101l-51 41l51 42h101zM350 380l-51 -42l-51 42v83l51 41l51 -41v-83zM509 151l-51 -41h-102l-51 41l51 42h102zM350 201l-51 -42l-51 42v83l51 42l51 -42v-83zM741 331q0 -146 -100.5 -246t-246.5 -100t-246 100t-100 246q0 145 100.5 245.5
t245.5 100.5q146 0 246.5 -100.5t100.5 -245.5zM711 331q0 133 -92 224.5t-225 91.5q-132 0 -224 -92t-92 -224q0 -133 91.5 -224.5t224.5 -91.5q132 0 224.5 92t92.5 224z" />
    <glyph glyph-name="ordfeminine" unicode="&#xaa;" 
 />
    <glyph glyph-name="guillemotleft" unicode="&#xab;" horiz-adv-x="546" 
d="M487 -4h-29l-192 231l192 229h29l-119 -229zM266 -4h-28l-189 231l189 229h28l-119 -229z" />
    <glyph glyph-name="logicalnot" unicode="&#xac;" horiz-adv-x="658" 
d="M585 230h-39v159h-489v40h528v-199z" />
    <glyph glyph-name="registered" unicode="&#xae;" horiz-adv-x="786" 
d="M572 362l-54 -37l-53 37v72l53 37l54 -37v-72zM510 476l-54 -37h-106l-53 37l53 36h106zM510 320l-53 -37h-107l-53 37l53 36h107zM342 362l-53 -37l-53 37v72l53 37l53 -37v-72zM571 125h-75l-141 97v52h75l141 -98v-51zM342 205l-53 -36l-53 36v73l53 36l53 -36v-73z
M741 331q0 -146 -100.5 -246t-246.5 -100t-246 100t-100 246q0 145 100.5 245.5t245.5 100.5q146 0 246.5 -100.5t100.5 -245.5zM711 331q0 133 -92 224.5t-225 91.5q-132 0 -224 -92t-92 -224q0 -133 91.5 -224.5t224.5 -91.5q132 0 224.5 92t92.5 224z" />
    <glyph glyph-name="overscore" unicode="&#xaf;" 
 />
    <glyph glyph-name="degree" unicode="&#xb0;" horiz-adv-x="438" 
d="M371 526q0 -62 -43.5 -106t-106.5 -44t-106.5 43.5t-43.5 106.5q0 64 43 107.5t107 43.5t107 -44t43 -107zM330 527q0 46 -31 77t-78 32q-46 1 -77 -31t-32 -78q-1 -47 31 -78t78 -31t77.5 32t31.5 77z" />
    <glyph glyph-name="plusminus" unicode="&#xb1;" horiz-adv-x="570" 
d="M570 69h-527v39h243v205h-243v40h243v242h39v-242h244v-40h-244v-205h245v-39z" />
    <glyph glyph-name="twosuperior" unicode="&#xb2;" 
 />
    <glyph glyph-name="threesuperior" unicode="&#xb3;" 
 />
    <glyph glyph-name="acute" unicode="&#xb4;" horiz-adv-x="165" 
d="M155 642l-37 -102l-78 -54l-26 54l31 102l74 48z" />
    <glyph glyph-name="mu1" unicode="&#xb5;" 
 />
    <glyph glyph-name="mu1" unicode="&#x3bc;" 
 />
    <glyph glyph-name="paragraph" unicode="&#xb6;" horiz-adv-x="506" 
d="M506 635h-65v-851h-35v851h-92v-851h-35v509q-109 5 -164 40q-71 45 -71 146q-1 92 66 140q58 43 154 43h242v-27z" />
    <glyph glyph-name="middot" unicode="&#xb7;" 
 />
    <glyph glyph-name="middot" unicode="&#x2219;" 
 />
    <glyph glyph-name="cedilla" unicode="&#xb8;" horiz-adv-x="154" 
d="M154 -102q0 -40 -34 -65q-30 -22 -71 -23q-20 0 -46 3v21q15 -2 24 -2q23 0 40.5 15.5t18.5 38.5q0 35 -39 36q-5 0 -13 -1l54 87h29l-24 -39q60 -14 61 -71z" />
    <glyph glyph-name="onesuperior" unicode="&#xb9;" 
 />
    <glyph glyph-name="ordmasculine" unicode="&#xba;" horiz-adv-x="412" 
d="M346 533q1 -62 -42 -105.5t-105 -43.5q-60 0 -98 40t-39 101q0 66 39 108t105 43q61 0 100.5 -41t39.5 -102zM278 500q1 77 -34 125q-20 29 -52 30q-61 1 -62 -92q0 -75 34 -126q19 -28 50 -28q64 0 64 91z" />
    <glyph glyph-name="guillemotright" unicode="&#xbb;" horiz-adv-x="550" 
d="M491 226l-189 -230h-28l119 230l-119 230h28zM274 226l-193 -230h-28l119 230l-119 230h28z" />
    <glyph glyph-name="onequarter" unicode="&#xbc;" 
 />
    <glyph glyph-name="onehalf" unicode="&#xbd;" 
 />
    <glyph glyph-name="threequarters" unicode="&#xbe;" 
 />
    <glyph glyph-name="questiondown" unicode="&#xbf;" horiz-adv-x="609" 
d="M77 30l77 59l76 -59v-119l-76 -59l-77 59v119zM166 -157l76 60h153l76 -60l-76 -59h-153zM165 98l76 59h153l76 -59l-76 -59h-153zM405 285l77 60l76 -60v-119l-76 -59l-77 59v119zM406 425l79 59l74 -59l-76 -60z" />
    <glyph glyph-name="Agrave" unicode="&#xc0;" horiz-adv-x="647" 
d="M592 386l-76 -59l-76 59v119l76 59l76 -59v-119zM504 573l-76 -60h-153l-76 60l76 59h153zM592 131l-76 -59l-76 59v119l76 59l76 -59v-119zM505 318l-77 -59h-152l-77 59l77 59h152zM264 386l-76 -59l-76 59v119l76 59l76 -59v-119zM264 131l-76 -59l-76 59v119l76 59
l76 -59v-119zM294 783l36 -102l79 -54l26 54l-31 102l-75 48z" />
    <glyph glyph-name="Aacute" unicode="&#xc1;" horiz-adv-x="647" 
d="M592 386l-76 -59l-76 59v119l76 59l76 -59v-119zM504 573l-76 -60h-153l-76 60l76 59h153zM592 131l-76 -59l-76 59v119l76 59l76 -59v-119zM505 318l-77 -59h-152l-77 59l77 59h152zM264 386l-76 -59l-76 59v119l76 59l76 -59v-119zM264 131l-76 -59l-76 59v119l76 59
l76 -59v-119zM378 784l-37 -102l-78 -54l-26 54l31 102l74 48z" />
    <glyph glyph-name="Acircumflex" unicode="&#xc2;" horiz-adv-x="647" 
d="M592 386l-76 -59l-76 59v119l76 59l76 -59v-119zM504 573l-76 -60h-153l-76 60l76 59h153zM592 131l-76 -59l-76 59v119l76 59l76 -59v-119zM505 318l-77 -59h-152l-77 59l77 59h152zM264 386l-76 -59l-76 59v119l76 59l76 -59v-119zM264 131l-76 -59l-76 59v119l76 59
l76 -59v-119zM504 698l-27 -29l-48 29l-44 64h-39l-42 -64l-46 -29l-29 29l72 121h130z" />
    <glyph glyph-name="Atilde" unicode="&#xc3;" horiz-adv-x="647" 
d="M592 386l-76 -59l-76 59v119l76 59l76 -59v-119zM504 573l-76 -60h-153l-76 60l76 59h153zM592 131l-76 -59l-76 59v119l76 59l76 -59v-119zM505 318l-77 -59h-152l-77 59l77 59h152zM264 386l-76 -59l-76 59v119l76 59l76 -59v-119zM264 131l-76 -59l-76 59v119l76 59
l76 -59v-119zM226 795l-5 -46l48 3l30 30l77 -77l69 -1l31 32l8 48l-48 -8l-32 -32l-80 80l-68 1z" />
    <glyph glyph-name="Adieresis" unicode="&#xc4;" horiz-adv-x="647" 
d="M592 386l-76 -59l-76 59v119l76 59l76 -59v-119zM504 573l-76 -60h-153l-76 60l76 59h153zM592 131l-76 -59l-76 59v119l76 59l76 -59v-119zM505 318l-77 -59h-152l-77 59l77 59h152zM264 386l-76 -59l-76 59v119l76 59l76 -59v-119zM264 131l-76 -59l-76 59v119l76 59
l76 -59v-119zM484 766l-53 -53l-53 53l53 53zM312 766l-53 -53l-53 53l53 53z" />
    <glyph glyph-name="Aring" unicode="&#xc5;" horiz-adv-x="647" 
d="M592 386l-76 -59l-76 59v119l76 59l76 -59v-119zM504 573l-76 -60h-153l-76 60l76 59h153zM592 131l-76 -59l-76 59v119l76 59l76 -59v-119zM505 318l-77 -59h-152l-77 59l77 59h152zM264 386l-76 -59l-76 59v119l76 59l76 -59v-119zM264 131l-76 -59l-76 59v119l76 59
l76 -59v-119zM427 735q1 -39 -26.5 -66t-66.5 -28t-66.5 27t-27.5 67q-1 40 26 66t68 27q40 1 66 -26t27 -67zM393 735q0 25 -17 42.5t-42 17.5q-26 0 -43 -17t-17 -43q0 -25 17.5 -42.5t42.5 -17.5t42 17.5t17 42.5z" />
    <glyph glyph-name="AE" unicode="&#xc6;" horiz-adv-x="769" 
d="M540 386l-76 -59l-76 59v119l76 59l76 -59v-119zM452 573l-76 -60h-153l-76 60l76 59h153zM540 131l-76 -59l-76 59v119l76 59l76 -59v-119zM453 318l-77 -59h-152l-77 59l77 59h152zM212 386l-76 -59l-76 59v119l76 59l76 -59v-119zM212 131l-76 -59l-76 59v119l76 59
l76 -59v-119zM778 573l-76 -60h-152l-77 60l77 59h152zM779 318l-76 -59h-153l-76 59l76 59h153zM539 386l-76 -59l-77 59v119l77 59l76 -59v-119zM778 60l-77 -59h-152l-77 59l77 60h152zM539 131l-76 -59l-77 59v119l77 59l76 -59v-119z" />
    <glyph glyph-name="Ccedilla" unicode="&#xc7;" horiz-adv-x="414" 
d="M414 573l-76 -60h-152l-77 60l77 59h152zM175 386l-76 -59l-77 59v119l77 59l76 -59v-119zM414 60l-77 -59h-152l-77 59l77 60h152zM175 131l-76 -59l-77 59v119l77 59l76 -59v-119zM316 -97q0 -40 -34 -65q-30 -22 -71 -23q-20 0 -46 3v21q15 -2 24 -2q23 0 40.5 15.5
t18.5 38.5q0 35 -39 36q-5 0 -13 -1l54 87h29l-24 -39q60 -14 61 -71z" />
    <glyph glyph-name="Egrave" unicode="&#xc8;" horiz-adv-x="432" 
d="M431 573l-76 -60h-152l-77 60l77 59h152zM432 318l-76 -59h-153l-76 59l76 59h153zM192 386l-76 -59l-77 59v119l77 59l76 -59v-119zM431 60l-77 -59h-152l-77 59l77 60h152zM192 131l-76 -59l-77 59v119l77 59l76 -59v-119zM238 781l36 -102l79 -54l26 54l-31 102
l-75 48z" />
    <glyph glyph-name="Eacute" unicode="&#xc9;" horiz-adv-x="431" 
d="M431 573l-76 -60h-152l-77 60l77 59h152zM432 318l-76 -59h-153l-76 59l76 59h153zM192 386l-76 -59l-77 59v119l77 59l76 -59v-119zM431 60l-77 -59h-152l-77 59l77 60h152zM192 131l-76 -59l-77 59v119l77 59l76 -59v-119zM346 787l-37 -102l-78 -54l-26 54l31 102
l74 48z" />
    <glyph glyph-name="Ecircumflex" unicode="&#xca;" horiz-adv-x="462" 
d="M457 573l-76 -60h-152l-77 60l77 59h152zM458 318l-76 -59h-153l-76 59l76 59h153zM218 386l-76 -59l-77 59v119l77 59l76 -59v-119zM457 60l-77 -59h-152l-77 59l77 60h152zM218 131l-76 -59l-77 59v119l77 59l76 -59v-119zM463 700l-27 -29l-48 29l-44 64h-39l-42 -64
l-46 -29l-29 29l72 121h130z" />
    <glyph glyph-name="Edieresis" unicode="&#xcb;" horiz-adv-x="463" 
d="M462 573l-76 -60h-152l-77 60l77 59h152zM463 318l-76 -59h-153l-76 59l76 59h153zM223 386l-76 -59l-77 59v119l77 59l76 -59v-119zM462 60l-77 -59h-152l-77 59l77 60h152zM223 131l-76 -59l-77 59v119l77 59l76 -59v-119zM450 771l-53 -53l-53 53l53 53zM278 771
l-53 -53l-53 53l53 53z" />
    <glyph glyph-name="Igrave" unicode="&#xcc;" horiz-adv-x="329" 
d="M267 386l-77 -59l-76 59v119l76 59l77 -59v-119zM267 131l-77 -59l-76 59v119l76 59l77 -59v-119zM127 781l36 -102l79 -54l26 54l-31 102l-75 48z" />
    <glyph glyph-name="Iacute" unicode="&#xcd;" horiz-adv-x="296" 
d="M234 386l-77 -59l-76 59v119l76 59l77 -59v-119zM234 131l-77 -59l-76 59v119l76 59l77 -59v-119zM212 787l-37 -102l-78 -54l-26 54l31 102l74 48z" />
    <glyph glyph-name="Icircumflex" unicode="&#xce;" horiz-adv-x="356" 
d="M260 386l-77 -59l-76 59v119l76 59l77 -59v-119zM260 131l-77 -59l-76 59v119l76 59l77 -59v-119zM326 703l-27 -29l-48 29l-44 64h-39l-42 -64l-46 -29l-29 29l72 121h130z" />
    <glyph glyph-name="Idieresis" unicode="&#xcf;" horiz-adv-x="337" 
d="M256 386l-77 -59l-76 59v119l76 59l77 -59v-119zM256 131l-77 -59l-76 59v119l76 59l77 -59v-119zM317 772l-53 -53l-53 53l53 53zM145 772l-53 -53l-53 53l53 53z" />
    <glyph glyph-name="Eth" unicode="&#xd0;" horiz-adv-x="682" 
d="M599 386l-76 -59l-76 59v119l76 59l76 -59v-119zM599 131l-76 -59l-76 59v119l76 59l76 -59v-119zM512 318l-77 -59h-152l-76 59l76 59h152zM510 60l-76 -59h-153l-76 59l76 60h153zM271 131l-76 -59l-76 59v19h-5l-96 37l96 37h5v26l76 59l76 -59v-26h35l96 -37l-96 -37
h-35v-19z" />
    <glyph glyph-name="Ntilde" unicode="&#xd1;" horiz-adv-x="647" 
d="M592 386l-76 -59l-76 59v119l76 59l76 -59v-119zM504 573l-76 -60h-153l-76 60l76 59h153zM592 131l-76 -59l-76 59v119l76 59l76 -59v-119zM264 386l-76 -59l-76 59v119l76 59l76 -59v-119zM264 131l-76 -59l-76 59v119l76 59l76 -59v-119zM220 788l-5 -46l48 3l30 30
l77 -77l69 -1l31 32l8 48l-48 -8l-32 -32l-80 80l-68 1z" />
    <glyph glyph-name="Ograve" unicode="&#xd2;" horiz-adv-x="643" 
d="M593 386l-76 -59l-77 59v119l77 59l76 -59v-119zM504 573l-76 -60h-153l-76 60l76 59h153zM593 131l-76 -59l-77 59v119l77 59l76 -59v-119zM265 386l-76 -59l-77 59v119l77 59l76 -59v-119zM504 60l-77 -59h-152l-77 59l77 60h152zM265 131l-76 -59l-77 59v119l77 59
l76 -59v-119zM272 783l36 -102l79 -54l26 54l-31 102l-75 48z" />
    <glyph glyph-name="Oacute" unicode="&#xd3;" horiz-adv-x="643" 
d="M593 386l-76 -59l-77 59v119l77 59l76 -59v-119zM504 573l-76 -60h-153l-76 60l76 59h153zM593 131l-76 -59l-77 59v119l77 59l76 -59v-119zM265 386l-76 -59l-77 59v119l77 59l76 -59v-119zM504 60l-77 -59h-152l-77 59l77 60h152zM265 131l-76 -59l-77 59v119l77 59
l76 -59v-119zM410 789l-37 -102l-78 -54l-26 54l31 102l74 48z" />
    <glyph glyph-name="Ocircumflex" unicode="&#xd4;" horiz-adv-x="643" 
d="M593 386l-76 -59l-77 59v119l77 59l76 -59v-119zM504 573l-76 -60h-153l-76 60l76 59h153zM593 131l-76 -59l-77 59v119l77 59l76 -59v-119zM265 386l-76 -59l-77 59v119l77 59l76 -59v-119zM504 60l-77 -59h-152l-77 59l77 60h152zM265 131l-76 -59l-77 59v119l77 59
l76 -59v-119zM486 698l-27 -29l-48 29l-44 64h-39l-42 -64l-46 -29l-29 29l72 121h130z" />
    <glyph glyph-name="Otilde" unicode="&#xd5;" horiz-adv-x="643" 
d="M593 386l-76 -59l-77 59v119l77 59l76 -59v-119zM504 573l-76 -60h-153l-76 60l76 59h153zM593 131l-76 -59l-77 59v119l77 59l76 -59v-119zM265 386l-76 -59l-77 59v119l77 59l76 -59v-119zM504 60l-77 -59h-152l-77 59l77 60h152zM265 131l-76 -59l-77 59v119l77 59
l76 -59v-119zM232 802l-5 -46l48 3l30 30l77 -77l69 -1l31 32l8 48l-48 -8l-32 -32l-80 80l-68 1z" />
    <glyph glyph-name="Odieresis" unicode="&#xd6;" horiz-adv-x="643" 
d="M593 386l-76 -59l-77 59v119l77 59l76 -59v-119zM504 573l-76 -60h-153l-76 60l76 59h153zM593 131l-76 -59l-77 59v119l77 59l76 -59v-119zM265 386l-76 -59l-77 59v119l77 59l76 -59v-119zM504 60l-77 -59h-152l-77 59l77 60h152zM265 131l-76 -59l-77 59v119l77 59
l76 -59v-119zM497 772l-53 -53l-53 53l53 53zM325 772l-53 -53l-53 53l53 53z" />
    <glyph glyph-name="multiply" unicode="&#xd7;" horiz-adv-x="519" 
d="M463 160l-28 -28l-173 173l-172 -173l-28 28l172 173l-172 171l29 29l171 -172l172 172l28 -28l-172 -172z" />
    <glyph glyph-name="Oslash" unicode="&#xd8;" horiz-adv-x="614" 
d="M560 131l-76 -59l-76 59v119l76 59l76 -59v-119zM232 386l-76 -59l-76 59v119l76 59l76 -59v-119zM201 274l139 239h-97l-76 60l76 59h153l9 -6l6 11h128v-101l-5 -10l26 -21v-119l-76 -59l-45 35l-140 -242h96l76 -60l-76 -59h-153l-8 6l-15 -25h-128v102l16 27l-27 20
v119l76 59z" />
    <glyph glyph-name="Ugrave" unicode="&#xd9;" horiz-adv-x="646" 
d="M593 386l-76 -59l-77 59v119l77 59l76 -59v-119zM593 131l-76 -59l-77 59v119l77 59l76 -59v-119zM265 386l-76 -59l-77 59v119l77 59l76 -59v-119zM504 60l-77 -59h-152l-77 59l77 60h152zM265 131l-76 -59l-77 59v119l77 59l76 -59v-119zM301 787l36 -102l79 -54l26 54
l-31 102l-75 48z" />
    <glyph glyph-name="Uacute" unicode="&#xda;" horiz-adv-x="646" 
d="M593 386l-76 -59l-77 59v119l77 59l76 -59v-119zM593 131l-76 -59l-77 59v119l77 59l76 -59v-119zM265 386l-76 -59l-77 59v119l77 59l76 -59v-119zM504 60l-77 -59h-152l-77 59l77 60h152zM265 131l-76 -59l-77 59v119l77 59l76 -59v-119zM424 784l-37 -102l-78 -54
l-26 54l31 102l74 48z" />
    <glyph glyph-name="Ucircumflex" unicode="&#xdb;" horiz-adv-x="646" 
d="M593 386l-76 -59l-77 59v119l77 59l76 -59v-119zM593 131l-76 -59l-77 59v119l77 59l76 -59v-119zM265 386l-76 -59l-77 59v119l77 59l76 -59v-119zM504 60l-77 -59h-152l-77 59l77 60h152zM265 131l-76 -59l-77 59v119l77 59l76 -59v-119zM498 698l-27 -29l-48 29
l-44 64h-39l-42 -64l-46 -29l-29 29l72 121h130z" />
    <glyph glyph-name="Udieresis" unicode="&#xdc;" horiz-adv-x="646" 
d="M593 386l-76 -59l-77 59v119l77 59l76 -59v-119zM593 131l-76 -59l-77 59v119l77 59l76 -59v-119zM265 386l-76 -59l-77 59v119l77 59l76 -59v-119zM504 60l-77 -59h-152l-77 59l77 60h152zM265 131l-76 -59l-77 59v119l77 59l76 -59v-119zM494 769l-53 -53l-53 53l53 53
zM322 769l-53 -53l-53 53l53 53z" />
    <glyph glyph-name="Yacute" unicode="&#xdd;" horiz-adv-x="583" 
d="M523 386l-77 -59l-76 59v119l76 59l77 -59v-119zM523 131l-77 -59l-76 59v119l76 59l77 -59v-119zM435 318l-76 -59h-153l-76 59l76 59h153zM195 386l-77 -59l-76 59v119l76 59l77 -59v-119zM347 788l-37 -102l-78 -54l-26 54l31 102l74 48z" />
    <glyph glyph-name="Thorn" unicode="&#xde;" 
 />
    <glyph glyph-name="germandbls" unicode="&#xdf;" horiz-adv-x="592" 
d="M542 386l-76 -59l-77 59v119l77 59l76 -59v-119zM453 573l-76 -60h-153l-76 60l76 59h153zM542 131l-76 -59l-77 59v119l77 59l76 -59v-119zM454 318l-76 -59l-33 -1l-76 61l76 59l33 -1zM214 386l-76 -59l-77 59v119l77 59l76 -59v-119zM453 60l-77 -59h-56l-77 59
l77 60h56zM214 51l-76 -59l-77 59v199l77 59l76 -59v-199z" />
    <glyph glyph-name="agrave" unicode="&#xe0;" horiz-adv-x="577" 
d="M527 386l-76 -59l-77 59v119l77 59l76 -59v-119zM438 573l-76 -60h-153l-76 60l76 59h153zM527 131l-76 -59l-77 59v119l77 59l76 -59v-119zM439 318l-76 -59h-153l-76 59l76 59h153zM438 60l-77 -59h-152l-77 59l77 60h152zM199 131l-76 -59l-77 59v119l77 59l76 -59
v-119zM265 785l36 -102l79 -54l26 54l-31 102l-75 48z" />
    <glyph glyph-name="aacute" unicode="&#xe1;" horiz-adv-x="578" 
d="M527 386l-76 -59l-77 59v119l77 59l76 -59v-119zM438 573l-76 -60h-153l-76 60l76 59h153zM527 131l-76 -59l-77 59v119l77 59l76 -59v-119zM439 318l-76 -59h-153l-76 59l76 59h153zM438 60l-77 -59h-152l-77 59l77 60h152zM199 131l-76 -59l-77 59v119l77 59l76 -59
v-119zM372 786l-37 -102l-78 -54l-26 54l31 102l74 48z" />
    <glyph glyph-name="acircumflex" unicode="&#xe2;" horiz-adv-x="577" 
d="M523 386l-76 -59l-77 59v119l77 59l76 -59v-119zM434 573l-76 -60h-153l-76 60l76 59h153zM523 131l-76 -59l-77 59v119l77 59l76 -59v-119zM435 318l-76 -59h-153l-76 59l76 59h153zM434 60l-77 -59h-152l-77 59l77 60h152zM195 131l-76 -59l-77 59v119l77 59l76 -59
v-119zM463 698l-27 -29l-48 29l-44 64h-39l-42 -64l-46 -29l-29 29l72 121h130z" />
    <glyph glyph-name="atilde" unicode="&#xe3;" horiz-adv-x="592" 
d="M536 386l-76 -59l-77 59v119l77 59l76 -59v-119zM447 573l-76 -60h-153l-76 60l76 59h153zM536 131l-76 -59l-77 59v119l77 59l76 -59v-119zM448 318l-76 -59h-153l-76 59l76 59h153zM447 60l-77 -59h-152l-77 59l77 60h152zM208 131l-76 -59l-77 59v119l77 59l76 -59
v-119zM219 795l-5 -46l48 3l30 30l77 -77l69 -1l31 32l8 48l-48 -8l-32 -32l-80 80l-68 1z" />
    <glyph glyph-name="adieresis" unicode="&#xe4;" horiz-adv-x="598" 
d="M543 386l-76 -59l-77 59v119l77 59l76 -59v-119zM454 573l-76 -60h-153l-76 60l76 59h153zM543 131l-76 -59l-77 59v119l77 59l76 -59v-119zM455 318l-76 -59h-153l-76 59l76 59h153zM454 60l-77 -59h-152l-77 59l77 60h152zM215 131l-76 -59l-77 59v119l77 59l76 -59
v-119zM443 761l-53 -53l-53 53l53 53zM271 761l-53 -53l-53 53l53 53z" />
    <glyph glyph-name="aring" unicode="&#xe5;" horiz-adv-x="577" 
d="M533 386l-76 -59l-77 59v119l77 59l76 -59v-119zM444 573l-76 -60h-153l-76 60l76 59h153zM533 131l-76 -59l-77 59v119l77 59l76 -59v-119zM445 318l-76 -59h-153l-76 59l76 59h153zM444 60l-77 -59h-152l-77 59l77 60h152zM205 131l-76 -59l-77 59v119l77 59l76 -59
v-119zM373 728q1 -39 -26.5 -66t-66.5 -28t-66.5 27t-27.5 67q-1 40 26 66t68 27q40 1 66 -26t27 -67zM339 728q0 25 -17 42.5t-42 17.5q-26 0 -43 -17t-17 -43q0 -25 17.5 -42.5t42.5 -17.5t42 17.5t17 42.5z" />
    <glyph glyph-name="ae" unicode="&#xe6;" horiz-adv-x="817" 
d="M539 386l-76 -59l-77 59v119l77 59l76 -59v-119zM450 573l-76 -60h-153l-76 60l76 59h153zM539 131l-76 -59l-77 59v119l77 59l76 -59v-119zM451 318l-76 -59h-153l-76 59l76 59h153zM450 60l-77 -59h-152l-77 59l77 60h152zM211 131l-76 -59l-77 59v119l77 59l76 -59
v-119zM779 573l-76 -60h-152l-77 60l77 59h152zM780 318l-76 -59h-153l-76 59l76 59h153zM540 386l-76 -59l-77 59v119l77 59l76 -59v-119zM779 60l-77 -59h-152l-77 59l77 60h152zM540 131l-76 -59l-77 59v119l77 59l76 -59v-119z" />
    <glyph glyph-name="ccedilla" unicode="&#xe7;" horiz-adv-x="433" 
d="M432 318l-76 -59h-153l-76 59l76 59h153zM431 60l-77 -59h-152l-77 59l77 60h152zM192 131l-76 -59l-77 59v119l77 59l76 -59v-119zM324 -95q0 -40 -34 -65q-30 -22 -71 -23q-20 0 -46 3v21q15 -2 24 -2q23 0 40.5 15.5t18.5 38.5q0 35 -39 36q-5 0 -13 -1l54 87h29
l-24 -39q60 -14 61 -71z" />
    <glyph glyph-name="egrave" unicode="&#xe8;" horiz-adv-x="443" 
d="M443 573l-76 -60h-152l-77 60l77 59h152zM444 318l-76 -59h-153l-76 59l76 59h153zM204 386l-76 -59l-77 59v119l77 59l76 -59v-119zM443 60l-77 -59h-152l-77 59l77 60h152zM204 131l-76 -59l-77 59v119l77 59l76 -59v-119zM244 782l36 -102l79 -54l26 54l-31 102
l-75 48z" />
    <glyph glyph-name="eacute" unicode="&#xe9;" horiz-adv-x="443" 
d="M443 573l-76 -60h-152l-77 60l77 59h152zM444 318l-76 -59h-153l-76 59l76 59h153zM204 386l-76 -59l-77 59v119l77 59l76 -59v-119zM443 60l-77 -59h-152l-77 59l77 60h152zM204 131l-76 -59l-77 59v119l77 59l76 -59v-119zM367 782l-37 -102l-78 -54l-26 54l31 102
l74 48z" />
    <glyph glyph-name="ecircumflex" unicode="&#xea;" horiz-adv-x="473" 
d="M472 573l-76 -60h-152l-77 60l77 59h152zM473 318l-76 -59h-153l-76 59l76 59h153zM233 386l-76 -59l-77 59v119l77 59l76 -59v-119zM472 60l-77 -59h-152l-77 59l77 60h152zM233 131l-76 -59l-77 59v119l77 59l76 -59v-119zM463 696l-27 -29l-48 29l-44 64h-39l-42 -64
l-46 -29l-29 29l72 121h130z" />
    <glyph glyph-name="edieresis" unicode="&#xeb;" horiz-adv-x="470" 
d="M469 573l-76 -60h-152l-77 60l77 59h152zM470 318l-76 -59h-153l-76 59l76 59h153zM230 386l-76 -59l-77 59v119l77 59l76 -59v-119zM469 60l-77 -59h-152l-77 59l77 60h152zM230 131l-76 -59l-77 59v119l77 59l76 -59v-119zM452 764l-53 -53l-53 53l53 53zM280 764
l-53 -53l-53 53l53 53z" />
    <glyph glyph-name="igrave" unicode="&#xec;" horiz-adv-x="323" 
d="M270 131l-77 -59l-76 59v119l76 59l77 -59v-119zM122 782l36 -102l79 -54l26 54l-31 102l-75 48z" />
    <glyph glyph-name="iacute" unicode="&#xed;" horiz-adv-x="290" 
d="M239 131l-77 -59l-76 59v119l76 59l77 -59v-119zM210 779l-37 -102l-78 -54l-26 54l31 102l74 48z" />
    <glyph glyph-name="icircumflex" unicode="&#xee;" horiz-adv-x="361" 
d="M279 131l-77 -59l-76 59v119l76 59l77 -59v-119zM362 698l-27 -29l-48 29l-44 64h-39l-42 -64l-46 -29l-29 29l72 121h130z" />
    <glyph glyph-name="idieresis" unicode="&#xef;" horiz-adv-x="333" 
d="M275 131l-77 -59l-76 59v119l76 59l77 -59v-119zM333 767l-53 -53l-53 53l53 53zM161 767l-53 -53l-53 53l53 53z" />
    <glyph glyph-name="eth" unicode="&#xf0;" 
 />
    <glyph glyph-name="ntilde" unicode="&#xf1;" horiz-adv-x="632" 
d="M590 131l-77 -59l-76 59v119l76 59l77 -59v-119zM502 318l-76 -59h-153l-76 59l76 59h153zM262 131l-77 -59l-76 59v119l76 59l77 -59v-119zM245 794l-5 -46l48 3l30 30l77 -77l69 -1l31 32l8 48l-48 -8l-32 -32l-80 80l-68 1z" />
    <glyph glyph-name="ograve" unicode="&#xf2;" horiz-adv-x="624" 
d="M588 131l-76 -59l-77 59v119l77 59l76 -59v-119zM500 318l-76 -59h-153l-76 59l76 59h153zM499 60l-77 -59h-152l-77 59l77 60h152zM260 131l-76 -59l-77 59v119l77 59l76 -59v-119zM285 782l36 -102l79 -54l26 54l-31 102l-75 48z" />
    <glyph glyph-name="oacute" unicode="&#xf3;" horiz-adv-x="624" 
d="M588 131l-76 -59l-77 59v119l77 59l76 -59v-119zM500 318l-76 -59h-153l-76 59l76 59h153zM499 60l-77 -59h-152l-77 59l77 60h152zM260 131l-76 -59l-77 59v119l77 59l76 -59v-119zM383 782l-37 -102l-78 -54l-26 54l31 102l74 48z" />
    <glyph glyph-name="ocircumflex" unicode="&#xf4;" horiz-adv-x="624" 
d="M588 131l-76 -59l-77 59v119l77 59l76 -59v-119zM500 318l-76 -59h-153l-76 59l76 59h153zM499 60l-77 -59h-152l-77 59l77 60h152zM260 131l-76 -59l-77 59v119l77 59l76 -59v-119zM506 695l-27 -29l-48 29l-44 64h-39l-42 -64l-46 -29l-29 29l72 121h130z" />
    <glyph glyph-name="otilde" unicode="&#xf5;" horiz-adv-x="624" 
d="M588 131l-76 -59l-77 59v119l77 59l76 -59v-119zM500 318l-76 -59h-153l-76 59l76 59h153zM499 60l-77 -59h-152l-77 59l77 60h152zM260 131l-76 -59l-77 59v119l77 59l76 -59v-119zM245 795l-5 -46l48 3l30 30l77 -77l69 -1l31 32l8 48l-48 -8l-32 -32l-80 80l-68 1z
" />
    <glyph glyph-name="odieresis" unicode="&#xf6;" horiz-adv-x="624" 
d="M588 131l-76 -59l-77 59v119l77 59l76 -59v-119zM500 318l-76 -59h-153l-76 59l76 59h153zM499 60l-77 -59h-152l-77 59l77 60h152zM260 131l-76 -59l-77 59v119l77 59l76 -59v-119zM498 764l-53 -53l-53 53l53 53zM326 764l-53 -53l-53 53l53 53z" />
    <glyph glyph-name="divide" unicode="&#xf7;" horiz-adv-x="411" 
d="M355 407l-76 -59h-153l-76 59l76 59h153zM286 586l-79 -59l-73 59l76 60zM285 222l-79 -59l-73 59l76 60z" />
    <glyph glyph-name="oslash" unicode="&#xf8;" horiz-adv-x="639" 
d="M184 87l-20 -15l-76 59v119l76 59l76 -59v-86l70 95h-58l-76 59l76 59h145l27 37h108v-67l-32 -44l68 -53v-119l-76 -59l-76 59v58l-50 -69h37l76 -60l-76 -59h-124l-16 -21h-109v67z" />
    <glyph glyph-name="ugrave" unicode="&#xf9;" horiz-adv-x="602" 
d="M584 131l-76 -59l-77 59v119l77 59l76 -59v-119zM495 60l-77 -59h-152l-76 59l76 60h152zM256 131l-76 -59l-77 59v119l77 59l76 -59v-119zM279 782l36 -102l79 -54l26 54l-31 102l-75 48z" />
    <glyph glyph-name="uacute" unicode="&#xfa;" horiz-adv-x="602" 
d="M584 131l-76 -59l-77 59v119l77 59l76 -59v-119zM495 60l-77 -59h-152l-76 59l76 60h152zM256 131l-76 -59l-77 59v119l77 59l76 -59v-119zM421 785l-37 -102l-78 -54l-26 54l31 102l74 48z" />
    <glyph glyph-name="ucircumflex" unicode="&#xfb;" horiz-adv-x="602" 
d="M584 131l-76 -59l-77 59v119l77 59l76 -59v-119zM495 60l-77 -59h-152l-76 59l76 60h152zM256 131l-76 -59l-77 59v119l77 59l76 -59v-119zM471 698l-27 -29l-48 29l-44 64h-39l-42 -64l-46 -29l-29 29l72 121h130z" />
    <glyph glyph-name="udieresis" unicode="&#xfc;" horiz-adv-x="602" 
d="M584 131l-76 -59l-77 59v119l77 59l76 -59v-119zM495 60l-77 -59h-152l-76 59l76 60h152zM256 131l-76 -59l-77 59v119l77 59l76 -59v-119zM480 764l-53 -53l-53 53l53 53zM308 764l-53 -53l-53 53l53 53z" />
    <glyph glyph-name="yacute" unicode="&#xfd;" horiz-adv-x="583" 
d="M523 386l-77 -59l-76 59v119l76 59l77 -59v-119zM523 131l-77 -59l-76 59v119l76 59l77 -59v-119zM435 318l-76 -59h-153l-76 59l76 59h153zM195 386l-77 -59l-76 59v119l76 59l77 -59v-119zM349 785l-37 -102l-78 -54l-26 54l31 102l74 48z" />
    <glyph glyph-name="thorn" unicode="&#xfe;" 
 />
    <glyph glyph-name="ydieresis" unicode="&#xff;" horiz-adv-x="590" 
d="M530 386l-77 -59l-76 59v119l76 59l77 -59v-119zM530 131l-77 -59l-76 59v119l76 59l77 -59v-119zM442 318l-76 -59h-153l-76 59l76 59h153zM202 386l-77 -59l-76 59v119l76 59l77 -59v-119zM378 764l-53 -53l-53 53l53 53zM206 764l-53 -53l-53 53l53 53z" />
    <glyph glyph-name="Amacron" unicode="&#x100;" 
 />
    <glyph glyph-name="amacron" unicode="&#x101;" 
 />
    <glyph glyph-name="Abreve" unicode="&#x102;" 
 />
    <glyph glyph-name="abreve" unicode="&#x103;" 
 />
    <glyph glyph-name="Aogonek" unicode="&#x104;" 
 />
    <glyph glyph-name="aogonek" unicode="&#x105;" 
 />
    <glyph glyph-name="Cacute" unicode="&#x106;" 
 />
    <glyph glyph-name="cacute" unicode="&#x107;" 
 />
    <glyph glyph-name="Ccircumflex" unicode="&#x108;" 
 />
    <glyph glyph-name="ccircumflex" unicode="&#x109;" 
 />
    <glyph glyph-name="Cdot" unicode="&#x10a;" 
 />
    <glyph glyph-name="cdot" unicode="&#x10b;" 
 />
    <glyph glyph-name="Ccaron" unicode="&#x10c;" 
 />
    <glyph glyph-name="ccaron" unicode="&#x10d;" 
 />
    <glyph glyph-name="Dcaron" unicode="&#x10e;" 
 />
    <glyph glyph-name="dcaron" unicode="&#x10f;" 
 />
    <glyph glyph-name="Dslash" unicode="&#x110;" 
 />
    <glyph glyph-name="dcroat" unicode="&#x111;" 
 />
    <glyph glyph-name="Emacron" unicode="&#x112;" 
 />
    <glyph glyph-name="emacron" unicode="&#x113;" 
 />
    <glyph glyph-name="Ebreve" unicode="&#x114;" 
 />
    <glyph glyph-name="ebreve" unicode="&#x115;" 
 />
    <glyph glyph-name="Edot" unicode="&#x116;" 
 />
    <glyph glyph-name="edot" unicode="&#x117;" 
 />
    <glyph glyph-name="Eogonek" unicode="&#x118;" 
 />
    <glyph glyph-name="eogonek" unicode="&#x119;" 
 />
    <glyph glyph-name="Ecaron" unicode="&#x11a;" 
 />
    <glyph glyph-name="ecaron" unicode="&#x11b;" 
 />
    <glyph glyph-name="Gcircumflex" unicode="&#x11c;" 
 />
    <glyph glyph-name="gcircumflex" unicode="&#x11d;" 
 />
    <glyph glyph-name="Gbreve" unicode="&#x11e;" 
 />
    <glyph glyph-name="gbreve" unicode="&#x11f;" 
 />
    <glyph glyph-name="Gdot" unicode="&#x120;" 
 />
    <glyph glyph-name="gdot" unicode="&#x121;" 
 />
    <glyph glyph-name="Gcedilla" unicode="&#x122;" 
 />
    <glyph glyph-name="gcedilla" unicode="&#x123;" 
 />
    <glyph glyph-name="Hcircumflex" unicode="&#x124;" 
 />
    <glyph glyph-name="hcircumflex" unicode="&#x125;" 
 />
    <glyph glyph-name="Hbar" unicode="&#x126;" 
 />
    <glyph glyph-name="hbar" unicode="&#x127;" 
 />
    <glyph glyph-name="Itilde" unicode="&#x128;" 
 />
    <glyph glyph-name="itilde" unicode="&#x129;" 
 />
    <glyph glyph-name="Imacron" unicode="&#x12a;" 
 />
    <glyph glyph-name="imacron" unicode="&#x12b;" 
 />
    <glyph glyph-name="Ibreve" unicode="&#x12c;" 
 />
    <glyph glyph-name="ibreve" unicode="&#x12d;" 
 />
    <glyph glyph-name="Iogonek" unicode="&#x12e;" 
 />
    <glyph glyph-name="iogonek" unicode="&#x12f;" 
 />
    <glyph glyph-name="Idotaccent" unicode="&#x130;" 
 />
    <glyph glyph-name="dotlessi" unicode="&#x131;" horiz-adv-x="303" 
d="M227 131l-77 -59l-76 59v119l76 59l77 -59v-119z" />
    <glyph glyph-name="IJ" unicode="&#x132;" 
 />
    <glyph glyph-name="ij" unicode="&#x133;" 
 />
    <glyph glyph-name="Jcircumflex" unicode="&#x134;" 
 />
    <glyph glyph-name="jcircumflex" unicode="&#x135;" 
 />
    <glyph glyph-name="Kcedilla" unicode="&#x136;" 
 />
    <glyph glyph-name="kcedilla" unicode="&#x137;" 
 />
    <glyph glyph-name="kgreenlandic" unicode="&#x138;" 
 />
    <glyph glyph-name="Lacute" unicode="&#x139;" 
 />
    <glyph glyph-name="lacute" unicode="&#x13a;" 
 />
    <glyph glyph-name="Lcedilla" unicode="&#x13b;" 
 />
    <glyph glyph-name="lcedilla" unicode="&#x13c;" 
 />
    <glyph glyph-name="Lcaron" unicode="&#x13d;" 
 />
    <glyph glyph-name="lcaron" unicode="&#x13e;" 
 />
    <glyph glyph-name="Ldot" unicode="&#x13f;" 
 />
    <glyph glyph-name="ldot" unicode="&#x140;" 
 />
    <glyph glyph-name="Lslash" unicode="&#x141;" 
 />
    <glyph glyph-name="lslash" unicode="&#x142;" 
 />
    <glyph glyph-name="Nacute" unicode="&#x143;" 
 />
    <glyph glyph-name="nacute" unicode="&#x144;" 
 />
    <glyph glyph-name="Ncedilla" unicode="&#x145;" 
 />
    <glyph glyph-name="ncedilla" unicode="&#x146;" 
 />
    <glyph glyph-name="Ncaron" unicode="&#x147;" 
 />
    <glyph glyph-name="ncaron" unicode="&#x148;" 
 />
    <glyph glyph-name="napostrophe" unicode="&#x149;" 
 />
    <glyph glyph-name="Eng" unicode="&#x14a;" 
 />
    <glyph glyph-name="eng" unicode="&#x14b;" 
 />
    <glyph glyph-name="Omacron" unicode="&#x14c;" 
 />
    <glyph glyph-name="omacron" unicode="&#x14d;" 
 />
    <glyph glyph-name="Obreve" unicode="&#x14e;" 
 />
    <glyph glyph-name="obreve" unicode="&#x14f;" 
 />
    <glyph glyph-name="Odblacute" unicode="&#x150;" 
 />
    <glyph glyph-name="odblacute" unicode="&#x151;" 
 />
    <glyph glyph-name="OE" unicode="&#x152;" horiz-adv-x="766" 
d="M535 386l-76 -59l-77 59v119l77 59l76 -59v-119zM446 573l-76 -60h-153l-76 60l76 59h153zM535 131l-76 -59l-77 59v119l77 59l76 -59v-119zM207 386l-76 -59l-77 59v119l77 59l76 -59v-119zM446 60l-77 -59h-152l-77 59l77 60h152zM207 131l-76 -59l-77 59v119l77 59
l76 -59v-119zM765 573l-76 -60h-152l-77 60l77 59h152zM766 318l-76 -59h-153l-76 59l76 59h153zM526 386l-76 -59l-77 59v119l77 59l76 -59v-119zM765 60l-77 -59h-152l-77 59l77 60h152zM526 131l-76 -59l-77 59v119l77 59l76 -59v-119z" />
    <glyph glyph-name="oe" unicode="&#x153;" horiz-adv-x="776" 
d="M542 131l-76 -59l-77 59v119l77 59l76 -59v-119zM454 318l-76 -59h-153l-76 59l76 59h153zM453 60l-77 -59h-152l-77 59l77 60h152zM214 131l-76 -59l-77 59v119l77 59l76 -59v-119zM775 573l-76 -60h-152l-77 60l77 59h152zM776 318l-76 -59h-153l-76 59l76 59h153z
M536 386l-76 -59l-77 59v119l77 59l76 -59v-119zM775 60l-77 -59h-152l-77 59l77 60h152zM536 131l-76 -59l-77 59v119l77 59l76 -59v-119z" />
    <glyph glyph-name="Racute" unicode="&#x154;" 
 />
    <glyph glyph-name="racute" unicode="&#x155;" 
 />
    <glyph glyph-name="Rcedilla" unicode="&#x156;" 
 />
    <glyph glyph-name="rcedilla" unicode="&#x157;" 
 />
    <glyph glyph-name="Rcaron" unicode="&#x158;" 
 />
    <glyph glyph-name="rcaron" unicode="&#x159;" 
 />
    <glyph glyph-name="Sacute" unicode="&#x15a;" 
 />
    <glyph glyph-name="sacute" unicode="&#x15b;" 
 />
    <glyph glyph-name="Scircumflex" unicode="&#x15c;" 
 />
    <glyph glyph-name="scircumflex" unicode="&#x15d;" 
 />
    <glyph glyph-name="Scedilla" unicode="&#x15e;" 
 />
    <glyph glyph-name="scedilla" unicode="&#x15f;" 
 />
    <glyph glyph-name="Scaron" unicode="&#x160;" horiz-adv-x="590" 
d="M467 573l-76 -60h-153l-76 60l76 59h153zM556 131l-76 -59l-77 59v119l77 59l76 -59v-119zM468 318l-76 -59h-153l-76 59l76 59h153zM228 386l-77 -59l-76 59v119l76 59l77 -59v-119zM467 60l-77 -59h-152l-77 59l77 60h152zM171 821h75l53 -104h20l52 104h75l-72 -161
h-130z" />
    <glyph glyph-name="scaron" unicode="&#x161;" horiz-adv-x="617" 
d="M495 573l-76 -60h-153l-76 60l76 59h153zM584 131l-76 -59l-77 59v119l77 59l76 -59v-119zM496 318l-76 -59h-153l-76 59l76 59h153zM256 386l-77 -59l-76 59v119l76 59l77 -59v-119zM495 60l-77 -59h-152l-77 59l77 60h152zM168 815h75l53 -104h20l52 104h75l-72 -161
h-130z" />
    <glyph glyph-name="Tcedilla" unicode="&#x162;" 
 />
    <glyph glyph-name="tcedilla" unicode="&#x163;" 
 />
    <glyph glyph-name="Tcaron" unicode="&#x164;" 
 />
    <glyph glyph-name="tcaron" unicode="&#x165;" 
 />
    <glyph glyph-name="Tbar" unicode="&#x166;" 
 />
    <glyph glyph-name="tbar" unicode="&#x167;" 
 />
    <glyph glyph-name="Utilde" unicode="&#x168;" 
 />
    <glyph glyph-name="utilde" unicode="&#x169;" 
 />
    <glyph glyph-name="Umacron" unicode="&#x16a;" 
 />
    <glyph glyph-name="umacron" unicode="&#x16b;" 
 />
    <glyph glyph-name="Ubreve" unicode="&#x16c;" 
 />
    <glyph glyph-name="ubreve" unicode="&#x16d;" 
 />
    <glyph glyph-name="Uring" unicode="&#x16e;" 
 />
    <glyph glyph-name="uring" unicode="&#x16f;" 
 />
    <glyph glyph-name="Udblacute" unicode="&#x170;" 
 />
    <glyph glyph-name="udblacute" unicode="&#x171;" 
 />
    <glyph glyph-name="Uogonek" unicode="&#x172;" 
 />
    <glyph glyph-name="uogonek" unicode="&#x173;" 
 />
    <glyph glyph-name="Wcircumflex" unicode="&#x174;" 
 />
    <glyph glyph-name="wcircumflex" unicode="&#x175;" 
 />
    <glyph glyph-name="Ycircumflex" unicode="&#x176;" 
 />
    <glyph glyph-name="ycircumflex" unicode="&#x177;" 
 />
    <glyph glyph-name="Ydieresis" unicode="&#x178;" horiz-adv-x="634" 
d="M574 386l-77 -59l-76 59v119l76 59l77 -59v-119zM574 131l-77 -59l-76 59v119l76 59l77 -59v-119zM486 318l-76 -59h-153l-76 59l76 59h153zM246 386l-77 -59l-76 59v119l76 59l77 -59v-119zM492 781l-53 -53l-53 53l53 53zM320 781l-53 -53l-53 53l53 53z" />
    <glyph glyph-name="Zacute" unicode="&#x179;" 
 />
    <glyph glyph-name="zacute" unicode="&#x17a;" 
 />
    <glyph glyph-name="Zdot" unicode="&#x17b;" 
 />
    <glyph glyph-name="zdot" unicode="&#x17c;" 
 />
    <glyph glyph-name="Zcaron" unicode="&#x17d;" 
 />
    <glyph glyph-name="zcaron" unicode="&#x17e;" 
 />
    <glyph glyph-name="longs" unicode="&#x17f;" 
 />
    <glyph glyph-name="florin" unicode="&#x192;" 
 />
    <glyph glyph-name="Aringacute" unicode="&#x1fa;" 
 />
    <glyph glyph-name="aringacute" unicode="&#x1fb;" 
 />
    <glyph glyph-name="AEacute" unicode="&#x1fc;" 
 />
    <glyph glyph-name="aeacute" unicode="&#x1fd;" 
 />
    <glyph glyph-name="Oslashacute" unicode="&#x1fe;" 
 />
    <glyph glyph-name="oslashacute" unicode="&#x1ff;" 
 />
    <glyph glyph-name="circumflex" unicode="&#x2c6;" horiz-adv-x="393" 
d="M333 555l-27 -29l-48 29l-44 64h-39l-42 -64l-46 -29l-29 29l72 121h130z" />
    <glyph glyph-name="caron" unicode="&#x2c7;" horiz-adv-x="289" 
d="M14 678h75l53 -104h20l52 104h75l-72 -161h-130z" />
    <glyph glyph-name="macron" unicode="&#x2c9;" horiz-adv-x="542" 
d="M542 714h-517v41h517v-41z" />
    <glyph glyph-name="breve" unicode="&#x2d8;" 
 />
    <glyph glyph-name="dotaccent" unicode="&#x2d9;" 
 />
    <glyph glyph-name="ring" unicode="&#x2da;" horiz-adv-x="267" 
d="M241 602q1 -39 -26.5 -66t-66.5 -28t-66.5 27t-27.5 67q-1 40 26 66t68 27q40 1 66 -26t27 -67zM207 602q0 25 -17 42.5t-42 17.5q-26 0 -43 -17t-17 -43q0 -25 17.5 -42.5t42.5 -17.5t42 17.5t17 42.5z" />
    <glyph glyph-name="ogonek" unicode="&#x2db;" 
 />
    <glyph glyph-name="tilde" unicode="&#x2dc;" horiz-adv-x="366" 
d="M81 637l-5 -46l48 3l30 30l77 -77l69 -1l31 32l8 48l-48 -8l-32 -32l-80 80l-68 1z" />
    <glyph glyph-name="hungarumlaut" unicode="&#x2dd;" 
 />
    <glyph glyph-name="tonos" unicode="&#x384;" 
 />
    <glyph glyph-name="dieresistonos" unicode="&#x385;" 
 />
    <glyph glyph-name="Alphatonos" unicode="&#x386;" 
 />
    <glyph glyph-name="anoteleia" unicode="&#x387;" 
 />
    <glyph glyph-name="Epsilontonos" unicode="&#x388;" 
 />
    <glyph glyph-name="quoteleft" unicode="&#x2018;" horiz-adv-x="384" 
d="M255 398q-60 0 -117 24q-71 30 -78 82v63q0 55 68 55t68 -55v-41q9 -19 59 -19q28 0 48.5 -14t20.5 -40t-20.5 -40.5t-48.5 -14.5z" />
    <glyph glyph-name="quoteright" unicode="&#x2019;" horiz-adv-x="401" 
d="M333 511q0 -108 -194 -112q-28 -1 -49.5 13.5t-21.5 41.5q0 25 21 40q18 13 45 14q62 1 62 21v38q0 55 68 55q28 0 48.5 -14t20.5 -41v-56z" />
    <glyph glyph-name="quotedblleft" unicode="&#x201c;" horiz-adv-x="646" 
d="M517 398q-58 0 -117 25q-71 31 -79 81v63q0 26 23 41q19 14 46 14q68 0 68 -55v-33q5 -11 25 -19t34 -8q28 0 48 -14t20 -40t-20 -40.5t-48 -14.5zM255 398q-59 0 -117 25q-71 31 -78 81v63q0 55 68 55t68 -55v-33q6 -11 27 -19q18 -8 32 -8q28 0 48.5 -14t20.5 -40
t-20.5 -40.5t-48.5 -14.5z" />
    <glyph glyph-name="quotedblright" unicode="&#x201d;" horiz-adv-x="660" 
d="M593 511q0 -58 -73 -88q-53 -22 -121 -24q-28 -1 -49 13t-21 41q0 52 66 55q61 3 61 23v36q0 26 22 41q19 14 47 14q68 0 68 -55v-56zM331 511q0 -108 -193 -112q-28 -1 -48 13q-23 15 -23 42q0 25 20 39t46 15q62 1 62 23v36q0 55 68 55t68 -55v-56z" />
    <glyph glyph-name="bullet" unicode="&#x2022;" horiz-adv-x="495" 
d="M446 302q5 -70 -40 -137q-57 -82 -155 -85q-82 -2 -139 62t-57 147v13q0 79 42 141q53 79 152 82q84 3 139 -63q49 -60 57 -148zM419 289l-72 69l-9 -56zM258 421l-34 78l9 -97zM347 402v64l-50 -34l-46 -74l46 -44zM210 402l-74 52l55 -96zM364 171l-51 98l-30 -28z
M170 344l-70 33l61 -63zM277 289l-44 55l-63 -92l-17 17l-17 -28l67 -109l21 25l-14 29zM297 104l-20 92l-28 -10z" />
    <glyph glyph-name="ellipsis" unicode="&#x2026;" horiz-adv-x="747" 
d="M702 20q0 -55 -68 -55q-28 0 -47 13q-22 15 -22 42v57q0 26 22 41q19 13 47 13q27 0 47.5 -14t20.5 -40v-57zM448 20q0 -55 -68 -55t-68 55v57q0 26 20 40t48 14q27 0 47.5 -14t20.5 -40v-57zM194 20q0 -27 -20.5 -41t-48.5 -14q-68 0 -68 55v57q0 26 20 40t48 14
t48.5 -14t20.5 -40v-57z" />
    <glyph glyph-name="glyph345" 
 />
    <glyph glyph-name="glyph346" 
 />
    <glyph glyph-name="glyph345" 
 />
    <glyph glyph-name="glyph346" 
 />
    <glyph glyph-name="glyph96" 
 />
    <glyph glyph-name="glyph97" 
 />
    <glyph glyph-name="glyph98" 
 />
    <glyph glyph-name="glyph99" 
 />
    <glyph glyph-name="glyph100" 
 />
    <glyph glyph-name="glyph101" 
 />
    <glyph glyph-name="glyph102" 
 />
    <glyph glyph-name="glyph103" 
 />
    <glyph glyph-name="glyph104" 
 />
    <glyph glyph-name="glyph105" 
 />
    <glyph glyph-name="glyph106" 
 />
    <glyph glyph-name="glyph107" 
 />
    <glyph glyph-name="glyph108" 
 />
    <glyph glyph-name="glyph109" 
 />
    <glyph glyph-name="glyph110" 
 />
    <glyph glyph-name="glyph111" 
 />
    <glyph glyph-name="glyph112" 
 />
    <glyph glyph-name="glyph113" 
 />
    <glyph glyph-name="glyph114" 
 />
    <glyph glyph-name="glyph115" 
 />
    <glyph glyph-name="glyph116" 
 />
    <glyph glyph-name="glyph117" 
 />
    <glyph glyph-name="glyph118" 
 />
    <glyph glyph-name="glyph119" 
 />
    <glyph glyph-name="glyph120" 
 />
    <glyph glyph-name="glyph121" 
 />
    <glyph glyph-name="glyph122" 
 />
    <glyph glyph-name="glyph123" 
 />
    <glyph glyph-name="glyph124" 
 />
    <glyph glyph-name="glyph125" 
 />
    <glyph glyph-name="glyph126" 
 />
    <glyph glyph-name="glyph127" 
 />
    <glyph glyph-name="glyph128" 
 />
    <glyph glyph-name="glyph129" 
 />
    <glyph glyph-name="glyph142" 
 />
    <glyph glyph-name="glyph353" 
 />
    <glyph glyph-name="glyph370" 
 />
    </font>
</defs>
</svg>
